<?xml version="1.0" encoding="UTF-8" standalone="no"?>
<!-- Created with Inkscape (http://www.inkscape.org/) -->
<svg
   xmlns:svg="http://www.w3.org/2000/svg"
   xmlns="http://www.w3.org/2000/svg"
   version="1.0"
   width="354.16211"
   height="518.09497"
   id="svg2"
   xml:space="preserve"><defs
     id="defs5"><clipPath
       id="clipPath17"><path
         d="M 16.861,702.345 L 594.646,702.345 L 594.646,20.061 L 16.861,20.061 L 16.861,702.345 z"
         id="path19" /></clipPath></defs><g
     transform="matrix(1.25,0,0,-1.25,-319.2225,600.705)"
     id="g11"><path
       d="M 255.378,392.63538 L 279.68752,392.63538 L 292.60574,409.85518 L 331.23931,409.85518 L 331.23931,392.63538 L 353.68896,392.63538 L 353.80667,480.564 L 324.11932,480.564 L 255.378,392.63538 z M 331.23931,426.71512 L 304.52843,426.71512 L 331.23931,463.33747"
       id="path227"
       style="fill:#a8aaac;fill-opacity:1;fill-rule:nonzero;stroke:none" /><path
       d="M 255.378,392.63538 L 279.68752,392.63538 L 292.60574,409.85518 L 331.23931,409.85518 L 331.23931,392.63538 L 353.68896,392.63538 L 353.80667,480.564 L 324.11932,480.564 L 255.378,392.63538 z M 331.23931,426.71512 L 304.52843,426.71512 L 331.23931,463.33747"
       id="path229"
       style="fill:#d00032;fill-opacity:1;fill-rule:nonzero;stroke:none" /><path
       d="M 365.61165,480.564 L 365.61165,392.63538 L 401.01987,392.63538 C 435.22069,392.63538 452.31606,407.16459 452.31606,436.59969 C 452.31606,466.03143 435.22069,480.564 401.01987,480.564 L 365.61165,480.564 z M 390.0288,463.95294 L 398.7026,463.95294 C 418.36075,463.95294 427.03456,456.13004 427.03456,436.59969 C 427.03456,417.05588 418.36075,409.37424 398.7026,409.37424 L 390.0288,409.37424"
       id="path231"
       style="fill:#a8aaac;fill-opacity:1;fill-rule:nonzero;stroke:none" /><path
       d="M 365.61165,480.564 L 365.61165,392.63538 L 401.01987,392.63538 C 435.22069,392.63538 452.31606,407.16459 452.31606,436.59969 C 452.31606,466.03143 435.22069,480.564 401.01987,480.564 L 365.61165,480.564 z M 390.0288,463.95294 L 398.7026,463.95294 C 418.36075,463.95294 427.03456,456.13004 427.03456,436.59969 C 427.03456,417.05588 418.36075,409.37424 398.7026,409.37424 L 390.0288,409.37424"
       id="path233"
       style="fill:#ea9f22;fill-opacity:1;fill-rule:nonzero;stroke:none" /><path
       d="M 459.14344,392.63538 L 499.1963,392.63538 C 522.16388,392.63538 533.62918,400.56927 533.62918,416.69938 C 533.62918,428.90459 526.3074,435.50663 512.25913,438.0627 C 524.85112,440.98872 531.06975,447.5874 531.06975,457.84866 C 531.06975,473.59872 518.24571,480.564 492.11331,480.564 L 459.14344,480.564 L 459.14344,392.63538 z M 482.70296,444.90017 L 482.70296,464.68613 L 492.11331,464.68613 C 502.25349,464.68613 507.26808,461.26235 507.26808,454.91255 C 507.26808,447.95736 502.48891,444.90017 492.11331,444.90017 L 482.70296,444.90017 z M 482.70296,408.63096 L 482.70296,429.75213 L 492.11331,429.75213 C 503.46089,429.75213 508.84881,426.58395 508.84881,419.37652 C 508.84881,411.5738 503.58533,408.63096 492.11331,408.63096"
       id="path235"
       style="fill:#a8aaac;fill-opacity:1;fill-rule:nonzero;stroke:none" /><path
       d="M 459.14344,392.63538 L 499.1963,392.63538 C 522.16388,392.63538 533.62918,400.56927 533.62918,416.69938 C 533.62918,428.90459 526.3074,435.50663 512.25913,438.0627 C 524.85112,440.98872 531.06975,447.5874 531.06975,457.84866 C 531.06975,473.59872 518.24571,480.564 492.11331,480.564 L 459.14344,480.564 L 459.14344,392.63538 z M 482.70296,444.90017 L 482.70296,464.68613 L 492.11331,464.68613 C 502.25349,464.68613 507.26808,461.26235 507.26808,454.91255 C 507.26808,447.95736 502.48891,444.90017 492.11331,444.90017 L 482.70296,444.90017 z M 482.70296,408.63096 L 482.70296,429.75213 L 492.11331,429.75213 C 503.46089,429.75213 508.84881,426.58395 508.84881,419.37652 C 508.84881,411.5738 503.58533,408.63096 492.11331,408.63096"
       id="path237"
       style="fill:#79868c;fill-opacity:1;fill-rule:nonzero;stroke:none" /><path
       d="M 260.87018,288.01161 L 353.59142,288.01161 L 353.59142,168.88555 C 329.50387,182.08291 300.23357,191.08295 260.87018,191.08295"
       id="path239"
       style="fill:#d00032;fill-opacity:1;fill-rule:nonzero;stroke:none" /><path
       d="M 459.4125,288.01161 L 533.58882,288.01161 L 533.58882,66.088027 C 502.82187,66.088027 479.54823,74.38851 459.4125,86.718159"
       id="path241"
       style="fill:#79868c;fill-opacity:1;fill-rule:nonzero;stroke:none" /><path
       d="M 365.40313,288.01161 L 446.98531,288.01161 L 446.98531,95.062365 C 419.48071,115.14429 396.65102,141.74081 365.40313,161.8631"
       id="path243"
       style="fill:#ea9f22;fill-opacity:1;fill-rule:nonzero;stroke:none" /><path
       d="M 365.55784,301.11817 L 350.6654,336.40532 C 359.09369,339.59031 362.60828,346.71029 362.60828,356.57132 C 362.60828,371.4873 353.94456,380.23846 335.75614,380.23846 L 313.83789,380.23846 L 313.83789,301.11817 L 328.95567,301.11817 L 328.95567,333.3414 L 336.19337,333.3414 L 349.33692,301.11817 L 365.55784,301.11817 z M 328.95567,367.74738 L 336.74494,367.74738 C 343.42434,367.74738 347.47705,364.46149 347.47705,356.7933 C 347.47705,349.12174 343.42434,345.82912 336.74494,345.82912 L 328.95567,345.82912"
       id="path245"
       style="fill:#000000;fill-opacity:1;fill-rule:nonzero;stroke:none" /><path
       d="M 365.55784,301.11817 L 350.6654,336.40532 C 359.09369,339.59031 362.60828,346.71029 362.60828,356.57132 C 362.60828,371.4873 353.94456,380.23846 335.75614,380.23846 L 313.83789,380.23846 L 313.83789,301.11817 L 328.95567,301.11817 L 328.95567,333.3414 L 336.19337,333.3414 L 349.33692,301.11817 L 365.55784,301.11817 z M 328.95567,367.74738 L 336.74494,367.74738 C 343.42434,367.74738 347.47705,364.46149 347.47705,356.7933 C 347.47705,349.12174 343.42434,345.82912 336.74494,345.82912 L 328.95567,345.82912"
       id="path247"
       style="fill:#000000;fill-opacity:1;fill-rule:nonzero;stroke:none" /><path
       d="M 368.65875,326.54765 C 368.65875,307.03748 378.95364,300.02175 393.64764,300.02175 C 408.3282,300.02175 418.62981,307.03748 418.62981,326.54765 L 418.62981,354.81571 C 418.62981,374.33261 408.3282,381.33488 393.64764,381.33488 C 378.95364,381.33488 368.65875,374.33261 368.65875,354.81571 L 368.65875,326.54765 z M 383.78998,356.7933 C 383.78998,365.55118 387.61735,367.97608 393.64764,367.97608 C 399.66785,367.97608 403.51204,365.55118 403.51204,356.7933 L 403.51204,324.56334 C 403.51204,315.81218 399.66785,313.38392 393.64764,313.38392 C 387.61735,313.38392 383.78998,315.81218 383.78998,324.56334"
       id="path249"
       style="fill:#000000;fill-opacity:1;fill-rule:nonzero;stroke:none" /><path
       d="M 368.65875,326.54765 C 368.65875,307.03748 378.95364,300.02175 393.64764,300.02175 C 408.3282,300.02175 418.62981,307.03748 418.62981,326.54765 L 418.62981,354.81571 C 418.62981,374.33261 408.3282,381.33488 393.64764,381.33488 C 378.95364,381.33488 368.65875,374.33261 368.65875,354.81571 L 368.65875,326.54765 z M 383.78998,356.7933 C 383.78998,365.55118 387.61735,367.97608 393.64764,367.97608 C 399.66785,367.97608 403.51204,365.55118 403.51204,356.7933 L 403.51204,324.56334 C 403.51204,315.81218 399.66785,313.38392 393.64764,313.38392 C 387.61735,313.38392 383.78998,315.81218 383.78998,324.56334"
       id="path251"
       style="fill:#000000;fill-opacity:1;fill-rule:nonzero;stroke:none" /><path
       d="M 426.98075,380.23846 L 426.98075,324.7954 C 426.98075,307.37044 437.16801,300.02175 452.74655,300.02175 C 468.29146,300.02175 478.5998,307.37044 478.5998,324.7954 L 478.5998,380.23846 L 463.46521,380.23846 L 463.46521,324.90639 C 463.46521,317.329 460.08851,313.38392 452.74655,313.38392 C 445.40123,313.38392 442.09852,317.329 442.09852,324.90639 L 442.09852,380.23846"
       id="path253"
       style="fill:#000000;fill-opacity:1;fill-rule:nonzero;stroke:none" /><path
       d="M 426.98075,380.23846 L 426.98075,324.7954 C 426.98075,307.37044 437.16801,300.02175 452.74655,300.02175 C 468.29146,300.02175 478.5998,307.37044 478.5998,324.7954 L 478.5998,380.23846 L 463.46521,380.23846 L 463.46521,324.90639 C 463.46521,317.329 460.08851,313.38392 452.74655,313.38392 C 445.40123,313.38392 442.09852,317.329 442.09852,324.90639 L 442.09852,380.23846"
       id="path255"
       style="fill:#000000;fill-opacity:1;fill-rule:nonzero;stroke:none" /><path
       d="M 504.30506,301.11817 L 504.30506,332.89409 L 510.99119,332.89409 C 529.62356,332.89409 538.70768,341.6587 538.70768,356.57132 C 538.70768,371.4873 529.62356,380.23846 510.99119,380.23846 L 489.1772,380.23846 L 489.1772,301.11817 L 504.30506,301.11817 z M 504.30506,367.74738 L 512.40712,367.74738 C 519.88024,367.74738 523.58317,364.02427 523.58317,356.57132 C 523.58317,349.12174 519.88024,345.38854 512.40712,345.38854 L 504.30506,345.38854"
       id="path257"
       style="fill:#000000;fill-opacity:1;fill-rule:nonzero;stroke:none" /><path
       d="M 504.30506,301.11817 L 504.30506,332.89409 L 510.99119,332.89409 C 529.62356,332.89409 538.70768,341.6587 538.70768,356.57132 C 538.70768,371.4873 529.62356,380.23846 510.99119,380.23846 L 489.1772,380.23846 L 489.1772,301.11817 L 504.30506,301.11817 z M 504.30506,367.74738 L 512.40712,367.74738 C 519.88024,367.74738 523.58317,364.02427 523.58317,356.57132 C 523.58317,349.12174 519.88024,345.38854 512.40712,345.38854 L 504.30506,345.38854"
       id="path259"
       style="fill:#000000;fill-opacity:1;fill-rule:nonzero;stroke:none" /><path
       d="M 291.2638,324.56334 L 291.2638,329.18107 L 279.97676,329.18107 L 279.97676,341.6587 L 305.09682,341.6587 L 306.39167,341.60489 L 306.39167,326.54765 C 306.39167,307.03748 296.08669,300.02175 281.39941,300.02175 C 266.69531,300.02175 256.41052,307.03748 256.41052,326.54765 L 256.41052,354.81571 C 256.41052,374.33261 266.69531,381.33488 281.39941,381.33488 C 296.08669,381.33488 306.39167,374.33261 306.39167,354.81571 L 306.39167,354.43903 L 291.2638,354.43903 L 291.2638,356.7933 C 291.2638,365.55118 287.41962,367.97608 281.39941,367.97608 C 275.37248,367.97608 271.53166,365.55118 271.53166,356.7933 L 271.53166,324.56334 C 271.53166,315.81218 275.37248,313.38392 281.39941,313.38392 C 287.41962,313.38392 291.2638,315.81218 291.2638,324.56334"
       id="path261"
       style="fill:#000000;fill-opacity:1;fill-rule:nonzero;stroke:none" /><path
       d="M 291.2638,324.56334 L 291.2638,329.18107 L 279.97676,329.18107 L 279.97676,341.6587 L 305.09682,341.6587 L 306.39167,341.60489 L 306.39167,326.54765 C 306.39167,307.03748 296.08669,300.02175 281.39941,300.02175 C 266.69531,300.02175 256.41052,307.03748 256.41052,326.54765 L 256.41052,354.81571 C 256.41052,374.33261 266.69531,381.33488 281.39941,381.33488 C 296.08669,381.33488 306.39167,374.33261 306.39167,354.81571 L 306.39167,354.43903 L 291.2638,354.43903 L 291.2638,356.7933 C 291.2638,365.55118 287.41962,367.97608 281.39941,367.97608 C 275.37248,367.97608 271.53166,365.55118 271.53166,356.7933 L 271.53166,324.56334 C 271.53166,315.81218 275.37248,313.38392 281.39941,313.38392 C 287.41962,313.38392 291.2638,315.81218 291.2638,324.56334"
       id="path263"
       style="fill:#000000;fill-opacity:1;fill-rule:nonzero;stroke:none" /></g></svg>