<?xml version="1.0" encoding="utf-8"?>
<!-- Generator: Adobe Illustrator 26.5.0, SVG Export Plug-In . SVG Version: 6.00 Build 0)  -->
<svg version="1.1" id="Ebene_1" xmlns="http://www.w3.org/2000/svg" xmlns:xlink="http://www.w3.org/1999/xlink" x="0px" y="0px"
	 viewBox="0 0 183.4 73.8" style="enable-background:new 0 0 183.4 73.8;" xml:space="preserve">
<style type="text/css">
	.st0{fill:#0092D4;}
</style>
<g>
	<polygon class="st0" points="112.7,33.6 122.7,26.2 124.4,24.9 122.7,24.9 112.7,24.9 105.5,30.6 107,25 98.6,24.9 95.4,37.9 
		93.3,46.7 95.4,46.8 101.4,46.8 103.1,40.1 106.1,38.3 117.3,56.7 122.7,56.6 126.5,56.6 122.7,50.3 	"/>
	<polygon class="st0" points="170.6,25 163.5,37.4 162.6,25 152,25 146.9,44.4 146.3,46.8 146.9,46.8 154.1,46.9 157.3,34.5 
		158.2,46.8 164.1,46.7 171.1,34.6 168.5,46.8 175.9,46.9 181.5,25 	"/>
	<path class="st0" d="M24.3,35.6c0,0,0.2-0.2,0.2-0.2c1.1-0.3,2.2-1.2,3-2.4c1.1-1.7,1.6-3.9,0-5.6c-1.4-1.4-4.3-2.5-9.4-2.5h-2.9
		H7.5l-5.5,22l12.3,0c0.3,0,0.6,0,0.9,0c8.7-0.3,11.2-2.6,11.7-6.4C27.5,36.1,24.9,36.1,24.3,35.6z M17.3,41.1h-2.1l-4.1,0l0.8-3.3
		h3.3H17C20.1,37.8,20.1,41.1,17.3,41.1z M18.8,33.3h-3.6h-2l0.8-3.3h1.3h3.3C22.1,29.9,21.6,33.2,18.8,33.3z"/>
	<path class="st0" d="M146.9,30.8c-1.3-3.3-4.8-6-11.1-6.4c-0.8-0.1-1.7-0.1-2.7,0c-3.5,0.2-7.5,1.3-10.1,3.7
		c-0.1,0.1-0.3,0.2-0.4,0.4c-3.8,3.8-6.4,11.4,0,16.4c0.3,0.2,0.6,0.4,0.8,0.6c3.3,1.3,6.6,1.8,9.7,1.7c4.1-0.2,7.8-1.5,10.3-3.7
		c1.5-1.3,2.8-3.1,3.4-5.1C147.8,36,147.9,33.2,146.9,30.8z M133.2,41.7c-0.8,0.2-1.7,0.2-2.7,0c-5.8-1.8-1.9-10.9,2.6-11.7
		c0,0,0.1,0,0.1,0C142,28.8,139.3,40.3,133.2,41.7z"/>
	<path class="st0" d="M97.6,17.3h-2.1L90,17.2l-5,19.4l-4.9-11.7h-8.9L67,40.8l-4-16h-7.6h-0.3l-12.2,16l-6.6,0.1l3.8-16h-8.3
		l-4.2,17.6l-1,4.3h1h20l2.6-3.4h5.3h3.8l0.9,3.4h14.4l2.9-11.5l5,11.5h8.1l4.9-20.4L97.6,17.3z M55.4,38.8l-2.6,0l2.6-4.1l1.1-1.6
		l1.5,5.8L55.4,38.8z"/>
</g>
</svg>
