<svg version="1.1" xmlns="http://www.w3.org/2000/svg" xmlns:xlink="http://www.w3.org/1999/xlink" x="0px" y="0px" style="enable-background:new 0 0 750 250;" xml:space="preserve" viewBox="231.3 13.27 287.43 223.57">
<style type="text/css">
	.st0{display:none;}
	.st1{display:inline;}
	.st2{fill:#FFFFFF;}
	.st3{display:inline;fill:#FFFFFF;}
	.st4{fill:#231F20;}
	.st5{clip-path:url(#SVGID_2_);fill:#231F20;}
	.st6{fill:#003D79;}
	.st7{display:inline;fill:#231F20;}
	.st8{clip-path:url(#SVGID_4_);fill:#231F20;}
	.st9{display:inline;fill:#003D79;}
	.st10{clip-path:url(#SVGID_6_);fill:#003D79;}
	.st11{clip-path:url(#SVGID_6_);fill:#FFFFFF;}
</style>
<g id="Layer_1" class="st0">
	<rect x="-1.3" y="-1.8" class="st1" width="752.2" height="252"/>
	<g class="st1">
		<path class="st2" d="M676.1,124h-1.1v-9.6h-3.5v-1h8.2v1h-3.5V124z"/>
		<path class="st2" d="M686.5,122l3.6-8.6h1.6V124h-1.1v-9.2h0l-3.8,9.2h-0.6l-3.8-9.2h0v9.2h-1.1v-10.6h1.6L686.5,122z"/>
	</g>
	<g id="CN_Name_Horizontal" class="st1">
		<g>
			<path class="st2" d="M178.3,133.4v-0.1c0-10.4,7.8-19,18.9-19c6.8,0,10.9,2.4,14.4,5.7l-4.1,4.8c-2.9-2.7-6.1-4.6-10.3-4.6     c-7,0-12.1,5.8-12.1,13v0.1c0,7.2,5.1,13,12.1,13c4.5,0,7.4-1.8,10.5-4.7l4.1,4.2c-3.8,4-8,6.5-14.9,6.5     C186.3,152.3,178.3,143.9,178.3,133.4z"/>
			<path class="st2" d="M214.7,143.7v-0.1c0-6,4.7-8.9,11.4-8.9c3.1,0,5.3,0.5,7.5,1.2v-0.7c0-3.9-2.4-6-6.9-6     c-3.1,0-5.4,0.7-7.9,1.7l-1.7-5c3-1.4,6-2.3,10.4-2.3c4.1,0,7.2,1.1,9.2,3.1c2,2,3,4.9,3,8.6v16.4h-6.2v-3.5c-1.9,2.3-4.8,4-9,4     C219.4,152.2,214.7,149.2,214.7,143.7z M233.7,141.7v-1.9c-1.6-0.6-3.8-1.1-6.3-1.1c-4.1,0-6.5,1.7-6.5,4.6v0.1     c0,2.7,2.4,4.2,5.4,4.2C230.5,147.6,233.7,145.2,233.7,141.7z"/>
			<path class="st2" d="M246,124h6.3v4.2c1.8-2.5,4.2-4.8,8.4-4.8c4,0,6.8,1.9,8.3,4.9c2.2-2.9,5.1-4.9,9.3-4.9     c6,0,9.7,3.8,9.7,10.6v17.7h-6.3v-15.7c0-4.4-2-6.8-5.6-6.8c-3.5,0-5.9,2.4-5.9,6.9v15.6h-6.3v-15.8c0-4.3-2.1-6.7-5.6-6.7     c-3.5,0-5.9,2.6-5.9,6.9v15.6H246V124z"/>
			<path class="st2" d="M300.9,147.4v4.3h-6.3v-38.3h6.3v15.2c2-2.9,4.9-5.2,9.4-5.2c6.5,0,12.9,5.1,12.9,14.4v0.1     c0,9.2-6.3,14.4-12.9,14.4C305.7,152.2,302.8,149.9,300.9,147.4z M316.7,137.9v-0.1c0-5.4-3.6-8.9-7.9-8.9     c-4.3,0-8.1,3.6-8.1,8.9v0.1c0,5.3,3.8,8.9,8.1,8.9C313.1,146.7,316.7,143.3,316.7,137.9z"/>
			<path class="st2" d="M328.5,113.7h6.8v6h-6.8V113.7z M328.7,124h6.4v27.7h-6.4V124z"/>
			<path class="st2" d="M341.7,141.6V124h6.3v15.7c0,4.3,2.2,6.7,5.9,6.7c3.7,0,6.2-2.5,6.2-6.8V124h6.4v27.7h-6.4v-4.3     c-1.8,2.6-4.4,4.9-8.7,4.9C345.3,152.2,341.7,148,341.7,141.6z"/>
			<path class="st2" d="M373.2,124h6.3v4.2c1.8-2.5,4.2-4.8,8.4-4.8c4,0,6.8,1.9,8.3,4.9c2.2-2.9,5.1-4.9,9.3-4.9     c6,0,9.7,3.8,9.7,10.6v17.7h-6.3v-15.7c0-4.4-2-6.8-5.6-6.8c-3.5,0-5.9,2.4-5.9,6.9v15.6h-6.3v-15.8c0-4.3-2.1-6.7-5.6-6.7     c-3.5,0-5.9,2.6-5.9,6.9v15.6h-6.3V124z"/>
			<path class="st2" d="M436.8,114.9h6l19.7,25.4v-25.4h6.4v36.7h-5.4l-20.3-26.1v26.1h-6.3V114.9z"/>
			<path class="st2" d="M474.6,137.9v-0.1c0-7.9,5.6-14.4,13.5-14.4c8.8,0,13.3,6.9,13.3,14.9c0,0.6-0.1,1.2-0.1,1.8h-20.4     c0.7,4.5,3.9,7,8,7c3.1,0,5.3-1.2,7.5-3.3l3.7,3.3c-2.6,3.1-6.2,5.2-11.3,5.2C480.8,152.3,474.6,146.5,474.6,137.9z M495.1,135.9     c-0.4-4.1-2.8-7.3-7-7.3c-3.9,0-6.6,3-7.2,7.3H495.1z"/>
			<path class="st2" d="M507.7,144v-14.6h-3.5V124h3.5v-7.6h6.4v7.6h7.4v5.5h-7.4V143c0,2.5,1.3,3.5,3.4,3.5c1.4,0,2.7-0.3,3.9-0.9     v5.2c-1.6,0.9-3.3,1.4-5.7,1.4C511.1,152.1,507.7,150.1,507.7,144z"/>
			<path class="st2" d="M524.3,124h6.5l5.6,19l6.1-19.1h5.5l6.1,19.1l5.7-19h6.4l-9.1,27.9h-5.7l-6.2-18.9l-6.2,18.9h-5.7L524.3,124     z"/>
			<path class="st2" d="M567.6,138v-0.1c0-7.9,6.3-14.5,14.8-14.5s14.7,6.5,14.7,14.4v0.1c0,7.9-6.3,14.4-14.9,14.4     C573.9,152.3,567.6,145.8,567.6,138z M590.8,138v-0.1c0-4.9-3.5-8.9-8.5-8.9c-5.1,0-8.3,4-8.3,8.8v0.1c0,4.8,3.5,8.9,8.4,8.9     C587.6,146.7,590.8,142.7,590.8,138z"/>
			<path class="st2" d="M602.3,124h6.4v6.2c1.7-4.1,4.9-7,9.8-6.8v6.7h-0.4c-5.6,0-9.4,3.6-9.4,11v10.5h-6.4V124z"/>
			<path class="st2" d="M622.6,113.4h6.3v22.9l11.5-12.3h7.7l-11,11.3l11.4,16.4H641l-8.2-12l-3.9,4.1v7.9h-6.3V113.4z"/>
			<path class="st2" d="M649.5,148l2.8-4.3c3,2.3,6.2,3.4,9.1,3.4c2.7,0,4.3-1.2,4.3-3v-0.1c0-2.2-2.9-2.9-6.2-3.9     c-4.1-1.2-8.7-2.8-8.7-8.1v-0.1c0-5.2,4.4-8.4,9.9-8.4c3.5,0,7.2,1.2,10.2,3.1l-2.5,4.5c-2.7-1.6-5.5-2.6-7.8-2.6     c-2.5,0-3.9,1.2-3.9,2.7v0.1c0,2,3,2.9,6.2,3.9c4,1.3,8.6,3.1,8.6,8.1v0.1c0,5.8-4.5,8.7-10.3,8.7     C657.3,152.2,652.9,150.8,649.5,148z"/>
		</g>
	</g>
	<path class="st3" d="M121.3,102.4c-6.4,3.6-11.1,9.5-13,16.5c-2,7.1-1.1,14.5,2.5,20.9c4.9,8.7,14.1,14.1,24.1,14.1   c3.3,0,6.5-0.6,9.5-1.7c5.4-7.7,8.6-17.1,8.6-27.2c0-8.5-2.2-16.5-6.2-23.3c-3.7-1.8-7.8-2.8-12-2.8   C130,98.9,125.4,100.1,121.3,102.4z"/>
	<path class="st3" d="M84,133.4c2.5,4.5,5.7,8.5,9.5,11.9c-1.7-2-3.2-4.2-4.5-6.6c-11.9-21.3-5-48.1,15.4-61   c-5.8,0.1-11.4,1.3-16.5,3.4C76.6,95.8,74.4,116.3,84,133.4z"/>
	<path class="st3" d="M78.8,136.3c-8.8-15.7-8.8-34.1-1.5-49.2c-11.5,8.6-19,22.4-19,37.9c0,26.1,21.2,47.3,47.3,47.3   c10.5,0,20.2-3.4,28-9.2c-2.6,0.4-5.3,0.6-8,0.6C106.2,163.7,88.3,153.2,78.8,136.3z"/>
	<path class="st3" d="M115.6,92.5c-7.8,4.3-13.4,11.5-15.8,20c-2.4,8.6-1.4,17.6,3,25.3c0.4,0.7,0.8,1.3,1.2,2   c-3.1-7.1-3.7-15-1.6-22.6c2.4-8.6,8.1-15.8,15.9-20.1c5-2.8,10.6-4.3,16.3-4.3c2.1,0,4.2,0.2,6.2,0.6c-1.6-1.8-3.3-3.5-5.2-5   c-1.2-0.1-2.5-0.2-3.8-0.2C126.2,88.3,120.6,89.7,115.6,92.5z"/>
	<path class="st3" d="M94.2,135.8c1.1,2,2.4,3.9,3.8,5.6c-0.1-0.2-0.3-0.4-0.4-0.6c-5.1-9.2-6.4-19.8-3.5-29.9   c2.9-10.1,9.5-18.5,18.6-23.6c4.3-2.4,9.1-4,14-4.7c-3.4-1.7-7.1-3-11-3.9c-2.1,0.8-4.2,1.7-6.2,2.8   C90.3,92.3,83.5,116.7,94.2,135.8z"/>
	<path class="st1" d="M144.3,152.2c-3.1,1.1-6.3,1.7-9.5,1.7c-10,0-19.2-5.4-24.1-14.1c-3.6-6.4-4.5-13.8-2.5-20.9   c2-7.1,6.6-12.9,13-16.5c4.1-2.3,8.7-3.5,13.4-3.5c4.2,0,8.3,1,12,2.8c-1.7-2.9-3.6-5.7-5.9-8.2c-2-0.4-4.1-0.6-6.2-0.6   c-5.7,0-11.3,1.5-16.3,4.3c-7.8,4.4-13.4,11.5-15.9,20.1c-2.1,7.6-1.6,15.5,1.6,22.6c-0.4-0.6-0.8-1.3-1.2-2   c-4.3-7.8-5.4-16.8-3-25.3c2.4-8.6,8-15.7,15.8-20c5-2.8,10.6-4.3,16.2-4.3c1.3,0,2.5,0.1,3.8,0.2c-2.7-2.3-5.8-4.2-9-5.8   c-4.9,0.7-9.6,2.2-14,4.7c-9.2,5.1-15.8,13.5-18.6,23.6c-2.9,10.1-1.6,20.7,3.5,29.9c0.1,0.2,0.3,0.4,0.4,0.6   c-1.4-1.7-2.7-3.6-3.8-5.6c-10.7-19.2-3.9-43.5,15.3-54.3c2-1.1,4.1-2,6.2-2.8c-3.3-0.7-6.7-1.1-10.2-1.1c-0.4,0-0.8,0-1.2,0   C84,90.6,77.1,117.5,89,138.8c1.3,2.3,2.8,4.5,4.5,6.6c-3.7-3.4-6.9-7.4-9.5-11.9c-9.6-17.1-7.4-37.6,3.8-52.3   c-3.8,1.5-7.4,3.5-10.6,6c-7.2,15.2-7.3,33.5,1.5,49.2c9.5,16.9,27.4,27.4,46.8,27.4c2.7,0,5.4-0.2,8-0.6   C137.7,160.1,141.3,156.4,144.3,152.2z"/>
</g>
<g id="Layer_2">
	<g>
		<polygon class="st4" points="501.4,157.9 500.2,157.9 500.2,147.3 496.3,147.3 496.3,146.2 505.3,146.2 505.3,147.3 501.4,147.3     501.4,157.9   "/>
		<g>
			<defs>
				<rect id="SVGID_1_" x="231.4" y="13.3" width="287.3" height="223.4"/>
			</defs>
			<clipPath id="SVGID_2_">
				<use xlink:href="#SVGID_1_" style="overflow:visible;"/>
			</clipPath>
			<polygon class="st5" points="512.9,155.7 516.8,146.2 518.7,146.2 518.7,157.9 517.5,157.9 517.5,147.8 517.4,147.8 513.2,157.9      512.6,157.9 508.4,147.8 508.3,147.8 508.3,157.9 507.1,157.9 507.1,146.2 509,146.2 512.9,155.7    "/>
			<path class="st5" d="M231.3,167.8v-0.1c0-11.5,8.6-21,20.9-21c7.5,0,12,2.6,15.9,6.3l-4.6,5.3c-3.2-3-6.7-5-11.4-5     c-7.7,0-13.4,6.4-13.4,14.3v0.1c0,7.9,5.6,14.4,13.4,14.4c5,0,8.2-2,11.7-5.2l4.6,4.6c-4.2,4.4-8.9,7.2-16.5,7.2     C240.1,188.6,231.3,179.4,231.3,167.8L231.3,167.8z"/>
		</g>
		<path class="st4" d="M292.5,176.9v-2.1c-1.8-0.7-4.2-1.2-7-1.2c-4.5,0-7.2,1.9-7.2,5.1v0.1c0,3,2.6,4.6,6,4.6    C289,183.5,292.5,180.8,292.5,176.9L292.5,176.9z M271.6,179.1V179c0-6.6,5.2-9.9,12.6-9.9c3.4,0,5.9,0.5,8.2,1.3v-0.8    c0-4.3-2.7-6.7-7.6-6.7c-3.4,0-6,0.8-8.8,1.9l-1.9-5.5c3.4-1.5,6.7-2.5,11.5-2.5c4.6,0,8,1.2,10.1,3.4c2.3,2.2,3.3,5.4,3.3,9.4    v18.1h-6.8v-3.8c-2.1,2.5-5.3,4.5-10,4.5C276.7,188.6,271.6,185.3,271.6,179.1L271.6,179.1z"/>
		<path class="st4" d="M306.1,157.3h7v4.6c2-2.7,4.6-5.3,9.3-5.3c4.4,0,7.5,2.1,9.2,5.4c2.4-3.2,5.7-5.4,10.3-5.4    c6.7,0,10.7,4.2,10.7,11.7v19.5h-7v-17.4c0-4.9-2.3-7.5-6.2-7.5c-3.8,0-6.5,2.7-6.5,7.6v17.3h-7v-17.4c0-4.8-2.3-7.4-6.2-7.4    c-3.9,0-6.5,2.9-6.5,7.6v17.3h-7V157.3L306.1,157.3z"/>
		<path class="st4" d="M384.2,172.7v-0.1c0-5.9-4-9.8-8.8-9.8c-4.8,0-8.9,3.9-8.9,9.8v0.1c0,5.9,4.2,9.8,8.9,9.8    C380.2,182.5,384.2,178.7,384.2,172.7L384.2,172.7z M366.7,183.2v4.8h-7v-42.3h7v16.8c2.3-3.2,5.4-5.7,10.4-5.7    c7.2,0,14.2,5.7,14.2,15.9v0.1c0,10.1-7,15.9-14.2,15.9C372,188.6,368.8,186,366.7,183.2L366.7,183.2z"/>
		<path class="st4" d="M397.5,157.3h7v30.6h-7V157.3L397.5,157.3z M397.2,146h7.5v6.7h-7.5V146L397.2,146z"/>
		<path class="st4" d="M411.8,176.8v-19.5h7v17.4c0,4.8,2.4,7.4,6.5,7.4c4.1,0,6.9-2.8,6.9-7.5v-17.3h7.1v30.6h-7.1v-4.8    c-2,2.9-4.8,5.4-9.6,5.4C415.8,188.6,411.8,183.9,411.8,176.8L411.8,176.8z"/>
		<path class="st4" d="M446.5,157.3h7v4.6c2-2.7,4.6-5.3,9.3-5.3c4.4,0,7.5,2.1,9.2,5.4c2.4-3.2,5.7-5.4,10.3-5.4    c6.7,0,10.7,4.2,10.7,11.7v19.5h-7v-17.4c0-4.9-2.3-7.5-6.2-7.5c-3.8,0-6.6,2.7-6.6,7.6v17.3h-7v-17.4c0-4.8-2.3-7.4-6.2-7.4    c-3.9,0-6.5,2.9-6.5,7.6v17.3h-7V157.3L446.5,157.3z"/>
		<polygon class="st4" points="232.7,195.4 239.3,195.4 261.1,223.5 261.1,195.4 268.1,195.4 268.1,236 262.1,236 239.7,207.1     239.7,236 232.7,236 232.7,195.4   "/>
		<path class="st4" d="M297.2,218.6c-0.5-4.5-3.1-8.1-7.8-8.1c-4.3,0-7.3,3.3-7.9,8.1H297.2L297.2,218.6z M274.5,220.8v-0.1    c0-8.8,6.2-15.9,15-15.9c9.7,0,14.7,7.7,14.7,16.5c0,0.6-0.1,1.3-0.1,2h-22.5c0.8,5,4.3,7.8,8.8,7.8c3.4,0,5.9-1.3,8.3-3.7    l4.1,3.7c-2.9,3.5-6.9,5.7-12.5,5.7C281.3,236.7,274.5,230.3,274.5,220.8L274.5,220.8z"/>
		<path class="st4" d="M311.1,227.5v-16.1h-3.9v-6h3.9V197h7v8.4h8.2v6h-8.2v15c0,2.7,1.4,3.8,3.8,3.8c1.6,0,3-0.3,4.3-1v5.7    c-1.7,1-3.7,1.6-6.3,1.6C314.8,236.5,311.1,234.3,311.1,227.5L311.1,227.5z"/>
		<polygon class="st4" points="329.5,205.4 336.6,205.4 342.8,226.4 349.6,205.3 355.6,205.3 362.4,226.4 368.6,205.4 375.7,205.4     365.7,236.2 359.4,236.2 352.5,215.3 345.6,236.2 339.4,236.2 329.5,205.4   "/>
		<path class="st4" d="M402.9,220.9v-0.1c0-5.4-3.9-9.9-9.4-9.9c-5.6,0-9.2,4.4-9.2,9.7v0.1c0,5.3,3.9,9.8,9.3,9.8    C399.3,230.6,402.9,226.1,402.9,220.9L402.9,220.9z M377.3,220.9v-0.1c0-8.8,7-16,16.3-16c9.4,0,16.3,7.1,16.3,15.9v0.1    c0,8.7-7,15.9-16.4,15.9C384.2,236.7,377.3,229.6,377.3,220.9L377.3,220.9z"/>
		<path class="st4" d="M415.5,205.4h7v6.9c1.9-4.6,5.4-7.7,10.8-7.5v7.4H433c-6.1,0-10.4,4-10.4,12.1V236h-7V205.4L415.5,205.4z"/>
		<polygon class="st4" points="438,193.7 445,193.7 445,219 457.7,205.4 466.2,205.4 454,217.9 466.6,236 458.4,236 449.3,222.7     445,227.2 445,236 438,236 438,193.7   "/>
		<path class="st4" d="M467.7,232l3.1-4.8c3.4,2.5,6.9,3.8,10,3.8c3,0,4.8-1.3,4.8-3.3v-0.1c0-2.4-3.2-3.2-6.8-4.3    c-4.5-1.3-9.6-3.1-9.6-9v-0.1c0-5.8,4.8-9.3,10.9-9.3c3.8,0,8,1.3,11.2,3.5l-2.8,5c-3-1.8-6.1-2.9-8.6-2.9c-2.7,0-4.3,1.3-4.3,3    v0.1c0,2.3,3.3,3.2,6.9,4.3c4.5,1.4,9.5,3.4,9.5,8.9v0.1c0,6.4-5,9.6-11.4,9.6C476.3,236.6,471.5,235,467.7,232L467.7,232z"/>
		<path class="st6" d="M381.9,40.6c-7.1,4-12.2,10.5-14.4,18.3c-2.2,7.8-1.2,16,2.7,23.1c5.4,9.6,15.6,15.6,26.6,15.6    c3.6,0,7.2-0.7,10.5-1.9c6-8.5,9.5-18.9,9.5-30c0-9.4-2.5-18.2-6.8-25.8c-4.1-2-8.6-3.1-13.3-3.1C391.6,36.7,386.5,38,381.9,40.6    L381.9,40.6z"/>
		<path class="st6" d="M340.8,74.8c2.8,5,6.3,9.4,10.5,13.2c-1.8-2.3-3.5-4.7-4.9-7.3c-13.2-23.5-5.5-53.1,17-67.4    c-6.4,0.2-12.6,1.5-18.3,3.8C332.6,33.2,330.2,55.9,340.8,74.8L340.8,74.8z"/>
		<path class="st6" d="M335,78c-9.7-17.4-9.7-37.6-1.7-54.4c-12.7,9.5-21,24.7-21,41.9c0,28.9,23.4,52.3,52.3,52.3    c11.6,0,22.3-3.8,31-10.2c-2.9,0.4-5.9,0.7-8.8,0.7C365.3,108.3,345.5,96.7,335,78L335,78z"/>
		<path class="st6" d="M375.7,29.7c-8.6,4.8-14.8,12.7-17.5,22.1c-2.7,9.5-1.5,19.4,3.3,28c0.4,0.8,0.9,1.5,1.3,2.2    c-3.5-7.9-4.1-16.6-1.7-25c2.7-9.5,8.9-17.4,17.5-22.2c5.5-3.1,11.7-4.7,18-4.7c2.3,0,4.6,0.2,6.8,0.6c-1.8-2-3.7-3.8-5.7-5.5    c-1.4-0.2-2.8-0.3-4.2-0.3C387.4,25,381.2,26.6,375.7,29.7L375.7,29.7z"/>
		<path class="st6" d="M352,77.5c1.2,2.2,2.7,4.3,4.2,6.2c-0.1-0.2-0.3-0.5-0.4-0.7c-5.7-10.1-7-21.8-3.9-33    c3.2-11.2,10.5-20.4,20.6-26.1c4.8-2.7,10-4.4,15.4-5.1c-3.8-1.9-7.9-3.4-12.1-4.3c-2.4,0.8-4.7,1.8-6.8,3.1    C347.8,29.4,340.2,56.3,352,77.5L352,77.5z"/>
	</g>
	<g class="st0">
		<polygon class="st7" points="668.3,193.9 667,193.9 667,182.2 662.8,182.2 662.8,181.1 672.6,181.1 672.6,182.2 668.3,182.2     668.3,193.9   "/>
		<g class="st1">
			<defs>
				<rect id="SVGID_3_" x="66.8" y="21.9" width="620.5" height="206.2"/>
			</defs>
			<clipPath id="SVGID_4_">
				<use xlink:href="#SVGID_3_" style="overflow:visible;"/>
			</clipPath>
			<polygon class="st8" points="680.9,191.5 685.2,181.1 687.2,181.1 687.2,193.9 685.9,193.9 685.9,182.8 685.9,182.8 681.3,193.9      680.6,193.9 676,182.8 675.9,182.8 675.9,193.9 674.6,193.9 674.6,181.1 676.6,181.1 680.9,191.5    "/>
			<path class="st8" d="M66.8,205.3v-0.1c0-12.6,9.4-23,22.9-23c8.2,0,13.1,2.9,17.4,6.9l-5,5.8c-3.6-3.3-7.4-5.5-12.4-5.5     c-8.4,0-14.6,7-14.6,15.7v0.1c0,8.7,6.2,15.7,14.6,15.7c5.5,0,8.9-2.2,12.7-5.7l5,5.1c-4.6,4.8-9.7,7.9-18,7.9     C76.4,228.1,66.8,218,66.8,205.3L66.8,205.3z"/>
		</g>
		<path class="st7" d="M133.7,215.3V213c-2-0.8-4.6-1.3-7.6-1.3c-4.9,0-7.9,2.1-7.9,5.6v0.1c0,3.2,2.9,5.1,6.5,5.1    C129.9,222.4,133.7,219.5,133.7,215.3L133.7,215.3z M110.8,217.7v-0.1c0-7.2,5.6-10.8,13.8-10.8c3.7,0,6.4,0.6,9,1.4v-0.8    c0-4.8-2.9-7.3-8.3-7.3c-3.7,0-6.5,0.8-9.6,2.1l-2-6c3.7-1.6,7.3-2.7,12.6-2.7c5,0,8.8,1.3,11.1,3.7c2.5,2.4,3.6,6,3.6,10.3v19.8    h-7.5v-4.2c-2.3,2.7-5.8,4.9-10.9,4.9C116.4,228,110.8,224.4,110.8,217.7L110.8,217.7z"/>
		<path class="st7" d="M148.6,193.8h7.7v5.1c2.2-3,5.1-5.8,10.2-5.8c4.8,0,8.2,2.3,10,5.9c2.7-3.6,6.2-5.9,11.3-5.9    c7.3,0,11.7,4.6,11.7,12.8v21.4h-7.7v-19c0-5.3-2.5-8.2-6.8-8.2c-4.2,0-7.2,2.9-7.2,8.3v18.9h-7.7v-19.1c0-5.2-2.5-8.1-6.8-8.1    c-4.2,0-7.2,3.2-7.2,8.3v18.9h-7.7V193.8L148.6,193.8z"/>
		<path class="st7" d="M234,210.7v-0.1c0-6.5-4.4-10.7-9.6-10.7c-5.2,0-9.8,4.3-9.8,10.7v0.1c0,6.4,4.6,10.7,9.8,10.7    C229.7,221.4,234,217.2,234,210.7L234,210.7z M214.8,222.1v5.2h-7.7V181h7.7v18.4c2.5-3.5,6-6.3,11.4-6.3    c7.9,0,15.5,6.2,15.5,17.4v0.1c0,11.1-7.6,17.4-15.5,17.4C220.7,228,217.2,225.2,214.8,222.1L214.8,222.1z"/>
		<path class="st7" d="M248.5,193.8h7.7v33.5h-7.7V193.8L248.5,193.8z M248.2,181.4h8.2v7.3h-8.2V181.4L248.2,181.4z"/>
		<path class="st7" d="M264.2,215.2v-21.3h7.7v19c0,5.2,2.6,8.1,7.2,8.1c4.4,0,7.5-3,7.5-8.2v-18.9h7.7v33.5h-7.7v-5.2    c-2.2,3.2-5.3,5.9-10.5,5.9C268.5,228,264.2,223,264.2,215.2L264.2,215.2z"/>
		<path class="st7" d="M302.2,193.8h7.7v5.1c2.2-3,5.1-5.8,10.2-5.8c4.8,0,8.2,2.3,10,5.9c2.7-3.6,6.2-5.9,11.3-5.9    c7.3,0,11.7,4.6,11.7,12.8v21.4h-7.7v-19c0-5.3-2.5-8.2-6.8-8.2c-4.2,0-7.2,2.9-7.2,8.3v18.9h-7.7v-19.1c0-5.2-2.5-8.1-6.8-8.1    c-4.2,0-7.2,3.2-7.2,8.3v18.9h-7.7V193.8L302.2,193.8z"/>
		<polygon class="st7" points="379.1,182.9 386.3,182.9 410.1,213.6 410.1,182.9 417.7,182.9 417.7,227.3 411.2,227.3 386.7,195.8     386.7,227.3 379.1,227.3 379.1,182.9   "/>
		<path class="st7" d="M449.6,208.2c-0.5-4.9-3.4-8.8-8.5-8.8c-4.7,0-8,3.6-8.7,8.8H449.6L449.6,208.2z M424.8,210.7v-0.1    c0-9.6,6.8-17.4,16.4-17.4c10.7,0,16,8.4,16,18c0,0.7-0.1,1.4-0.1,2.2h-24.6c0.8,5.5,4.7,8.5,9.6,8.5c3.7,0,6.4-1.4,9.1-4l4.5,4    c-3.2,3.8-7.5,6.3-13.7,6.3C432.3,228.1,424.8,221.1,424.8,210.7L424.8,210.7z"/>
		<path class="st7" d="M464.9,218.1v-17.6h-4.2v-6.6h4.2v-9.2h7.7v9.2h9v6.6h-9v16.4c0,3,1.5,4.2,4.1,4.2c1.7,0,3.2-0.4,4.8-1.1v6.3    c-1.9,1.1-4,1.7-6.9,1.7C468.9,227.9,464.9,225.4,464.9,218.1L464.9,218.1z"/>
		<polygon class="st7" points="484.9,193.8 492.8,193.8 499.5,216.8 506.9,193.7 513.5,193.7 520.9,216.8 527.8,193.8 535.5,193.8     524.5,227.6 517.6,227.6 510.1,204.7 502.6,227.6 495.7,227.6 484.9,193.8   "/>
		<path class="st7" d="M565.2,210.8v-0.1c0-5.9-4.2-10.8-10.3-10.8c-6.2,0-10.1,4.8-10.1,10.7v0.1c0,5.8,4.2,10.7,10.2,10.7    C561.3,221.4,565.2,216.6,565.2,210.8L565.2,210.8z M537.2,210.8v-0.1c0-9.6,7.6-17.5,17.9-17.5c10.3,0,17.8,7.8,17.8,17.4v0.1    c0,9.5-7.6,17.4-17.9,17.4C544.8,228.1,537.2,220.3,537.2,210.8L537.2,210.8z"/>
		<path class="st7" d="M579.1,193.8h7.7v7.5c2.1-5,6-8.4,11.9-8.2v8.1h-0.4c-6.7,0-11.4,4.4-11.4,13.3v12.7h-7.7V193.8L579.1,193.8z    "/>
		<polygon class="st7" points="603.6,181 611.3,181 611.3,208.7 625.2,193.8 634.5,193.8 621.2,207.5 634.9,227.3 625.9,227.3     616,212.8 611.3,217.8 611.3,227.3 603.6,227.3 603.6,181   "/>
		<path class="st7" d="M636.1,223l3.4-5.2c3.7,2.7,7.5,4.1,11,4.1c3.3,0,5.2-1.4,5.2-3.6v-0.1c0-2.6-3.5-3.5-7.5-4.7    c-4.9-1.4-10.5-3.4-10.5-9.8v-0.1c0-6.3,5.3-10.2,11.9-10.2c4.2,0,8.8,1.5,12.3,3.8l-3,5.5c-3.2-2-6.7-3.2-9.5-3.2    c-3,0-4.7,1.4-4.7,3.3v0.1c0,2.5,3.6,3.5,7.5,4.8c4.9,1.5,10.4,3.7,10.4,9.8v0.1c0,7-5.5,10.5-12.4,10.5    C645.6,228,640.3,226.3,636.1,223L636.1,223z"/>
		<path class="st9" d="M396,51.8c-7.8,4.3-13.4,11.4-15.8,20c-2.4,8.6-1.4,17.5,3,25.3c5.9,10.5,17,17,29.1,17    c3.9,0,7.8-0.7,11.5-2.1c6.5-9.3,10.4-20.6,10.4-32.9c0-10.3-2.7-19.9-7.5-28.2c-4.5-2.2-9.4-3.4-14.5-3.4    C406.5,47.5,400.9,49,396,51.8L396,51.8z"/>
		<path class="st9" d="M350.9,89.3c3.1,5.5,6.9,10.3,11.4,14.4c-2-2.5-3.8-5.1-5.4-8c-14.4-25.7-6-58.1,18.6-73.8    c-7.1,0.2-13.8,1.6-20,4.1C342,43.8,339.4,68.6,350.9,89.3L350.9,89.3z"/>
		<path class="st9" d="M344.7,92.8c-10.6-19-10.6-41.2-1.9-59.5c-13.9,10.4-23,27.1-23,45.8c0,31.6,25.6,57.2,57.2,57.2    c12.7,0,24.4-4.1,33.9-11.1c-3.2,0.5-6.4,0.7-9.7,0.7C377.8,125.9,356.1,113.2,344.7,92.8L344.7,92.8z"/>
		<path class="st9" d="M389.2,39.8c-9.4,5.3-16.2,13.8-19.1,24.2c-2.9,10.4-1.6,21.2,3.6,30.6c0.5,0.8,1,1.6,1.5,2.4    c-3.8-8.6-4.5-18.1-1.9-27.3c2.9-10.4,9.7-19,19.2-24.3c6-3.4,12.9-5.2,19.7-5.2c2.5,0,5,0.2,7.5,0.7c-1.9-2.2-4-4.2-6.2-6    c-1.5-0.2-3-0.3-4.6-0.3C402,34.7,395.2,36.5,389.2,39.8L389.2,39.8z"/>
		<g class="st1">
			<defs>
				<rect id="SVGID_5_" x="66.8" y="21.9" width="620.5" height="206.2"/>
			</defs>
			<clipPath id="SVGID_6_">
				<use xlink:href="#SVGID_5_" style="overflow:visible;"/>
			</clipPath>
			<path class="st10" d="M363.3,92.2c1.3,2.4,2.9,4.7,4.6,6.8c-0.2-0.3-0.3-0.5-0.5-0.8c-6.2-11.1-7.7-23.9-4.3-36.1     c3.4-12.2,11.4-22.3,22.5-28.5c5.2-2.9,11-4.8,16.9-5.6c-4.2-2.1-8.6-3.7-13.3-4.7c-2.6,0.9-5.1,2-7.5,3.4     C358.6,39.6,350.3,69,363.3,92.2L363.3,92.2z"/>
			<path class="st11" d="M423.8,112c-3.7,1.4-7.6,2.1-11.5,2.1c-12,0-23.2-6.5-29.1-17c-4.3-7.8-5.4-16.7-3-25.3     c2.4-8.6,8-15.6,15.8-20c5-2.8,10.6-4.2,16.2-4.2c5.1,0,10.1,1.2,14.5,3.4c-2-3.5-4.4-6.8-7.1-9.9c-2.4-0.5-4.9-0.7-7.5-0.7     c-6.9,0-13.7,1.8-19.7,5.2c-9.4,5.3-16.2,13.9-19.2,24.3c-2.6,9.2-1.9,18.7,1.9,27.3c-0.5-0.8-1-1.6-1.5-2.4     c-5.3-9.4-6.5-20.3-3.6-30.6c2.9-10.4,9.7-19,19.1-24.2c6-3.4,12.8-5.1,19.6-5.1c1.5,0,3.1,0.1,4.6,0.3c-3.3-2.7-7-5.1-10.8-7.1     c-5.9,0.8-11.6,2.7-16.9,5.6c-11.1,6.2-19.1,16.3-22.5,28.5c-3.4,12.2-1.9,25,4.3,36.1c0.1,0.3,0.3,0.5,0.5,0.8     c-1.7-2.1-3.3-4.4-4.6-6.8c-13-23.2-4.7-52.6,18.5-65.6c2.4-1.3,4.9-2.5,7.5-3.4c-4-0.9-8.1-1.3-12.3-1.3c-0.5,0-1,0-1.4,0     c-24.6,15.6-33,48-18.6,73.8c1.6,2.8,3.4,5.5,5.4,8c-4.5-4.1-8.4-8.9-11.4-14.4c-11.6-20.7-9-45.5,4.6-63.2     c-4.6,1.9-8.9,4.3-12.8,7.2c-8.7,18.3-8.8,40.5,1.9,59.5c11.4,20.4,33.1,33.1,56.5,33.1c3.2,0,6.5-0.3,9.7-0.7     C415.8,121.5,420.2,117,423.8,112L423.8,112z"/>
		</g>
	</g>
</g>
</svg>