<?xml version="1.0" encoding="UTF-8"?>
<!-- Created with Inkscape (http://www.inkscape.org/) -->
<svg width="1664.8" height="309.45" version="1.1" viewBox="0 0 1664.8 309.45" xmlns="http://www.w3.org/2000/svg">
 <g fill="#d4012e">
  <path d="m280.38 1.0394-18.333 62.92h-113.83c-11.693 0-24.733 4.9333-30.987 18.68 0 0-5.8267 14.173-11.253 30.413-8.1866 24.6-11.667 34.587-11.667 34.587-7.7067 22.92-13.84 43.133-7.2134 54.587 3.6267 5.48 8.64 8.4667 14.267 10.133 6.5467 1.9333 15.373 2.4533 22.333 2.7866 8.96 0.413 22.787 0.24 37.72-0.667 12.573-0.76 26.733-2.32 43.107-5.1734-0.333 0 8.7467-1.6666 15.027-3.2666l-20.667 68.253c-28.733 3.76-63.733 5.8533-81.653 5.4267-34.027 0.84-55.133-2.7734-55.133-2.7734-10.107-1.36-20.32-4.0533-30.84-9.16-11.133-6.12-19.507-14.493-25.04-27.16-10.653-21.32-5.84-57.013 1.16-80.347 0 0 14.44-51.107 26.667-83.333 13.693-36.12 27.173-60.987 60.173-70.32 8.3334-3 28.92-5.6534 51.973-5.6534 2.5066 0 134.19 0.07 134.19 0.07"/>
  <path d="m866.42 1.2394h20.627l-30.16 101.92-51.507 170.17h-77.293l2.8-8.84 56.667-188.67-0.333-0.333-10.667 11.667-103 127c-5.04 0-9.6266 0.213-14.667 0l-24-140h-1.3334l-60.667 199.17h-77.92l82.08-272.09h78.333s8.0667-0.133 15.6 2.3067c8.6133 2.7733 16.24 6.28 22.24 15.613 3.4933 5.84 5.5867 12.373 7.0667 19.08 1.8933 8.6133 10.267 57.92 10.267 57.92l42-54c14-18.333 33.053-36.733 57.2-39.667 17.6-2.1333 45.56-1.2533 56.667-1.2533"/>
  <path d="m1517.9 0.1994h11.453c9.2933 0 19.307 0 30.627 0.84 0.667 0 15.96 0.16 17.293 0.827 19 2.5066 37.48 7.6533 49.147 25.987 9.3333 14.333 7.08 36.667 3.9333 50.933 0 0-6.8533 26.147-15.187 54.48-10.467 35.587-19.813 64.52-19.813 64.52-3 8.6666-6 17.333-9.3333 25.667 13.04 0.09 78.747-0.12 78.747-0.12l-15.547 50c-8.8667 0.2-105.44 0-105.44 0-18.96-0.07-37.787 3.68-43.613 5.7733-10 3.6-19.787 8.9467-26.84 14.213-6.3066 4.4133-12.413 9.7333-17.973 16.133-0.187-3.48 1.8933-12.227 3.56-16.813 1.2533-3.5334 3.96-8.5334 6.7067-13.307 22.88-34.387 64.307-50.56 103.07-54.547v-0.333c-11.667-0.333-19.333 0.667-30 2-34.667 5-73.08 17.707-96 49.173-27.013 0.2-74 1.16-93.667-35.173-13-28-3.6667-63.667 3.6666-92l14.667-47.333c14-34.667 22.04-81.787 63.04-96.12 17-5 26.44-4.6533 40.493-4.8l10.76-0.2 10.907 0.2 14.92-0.2c1.6667 0.2 7.5067-0.213 10.427 0.2zm18.373 50.84c-5.48-2.36-16.107-3.1867-27.987-3.4-7.9066-0.133-9.5466 0.07-17.28 0.07-15.84 0-23.76 7.8533-27.507 14.733-3.8134 6.9867-7.92 17.08-13.747 32.493l-12.36 37.227c-4.72 15.36-13.48 39.853-15.2 53.613-1.4667 7.2134-2.0267 12.773-0.133 19.507 1.8533 5.4933 4.7733 9.0266 10.413 11.587 7.0667 3.28 14.467 3.96 21.827 4.76 11.56 1.2534 25.653 0.813 34.427-2.7466 20.613-8.9334 26.44-30.2 35-53.333 0 0 7.36-22.693 14.213-46.44 3.6133-12.52 5.28-19.453 6.9466-26.12 3.0534-10.827 3.6134-18.053 3.6134-18.053 1.1066-6.3866 0.84-12.227-2.7734-17.493 0 0-3.88-4-9.4533-6.4"/>
  <path d="m1059.3 1.1861s18.493 0.213 25.427 1.6666c5.9733 1.2534 14.147 3.1867 20.693 6.8 11.253 7.08 20.133 17.36 25.12 34.84 1.9467 8.5334 2.2 21.013 1.5467 28.213-0.56 6.12-2.68 19.173-5.5467 29.12-6.08 21.013-18.627 45.907-36.573 64.04-7.12 7.1866-15.24 13.24-25.667 18.24-7.2133 3.3333-12.84 4.8533-19.573 6.24-14.067 2.5466-22.293 3.3866-42.307 3.8533-20.573 0.653-41.48 0.01-62.88-0.587l-0.333 1.2134c-8 26.667-15.333 51.84-23 78.507h-38.333-11.04c-1.6667 0.333-3.96 0-6.2534 0h-24.8l9.76-32.84 60-200 11.707-39.253s109.77-0.05 142.05-0.05zm-26.387 46.253h-12.773c-16.387 0-22.16 0.133-38.453 0.267-0.787 2.7866-1.8133 6.7866-2.8133 9.4533l-24.547 84.92 26.32 0.413h6.1067c24.173 0 45.12-6 58.12-29.333 2.6133-4.3867 4.1333-7.3733 5.8933-11.973 1.6667-4.1734 2.92-8.6134 4.3733-14.867 1.2534-5.6267 1.6667-8.4667 2.08-13.453 0.36-5.3067 0.05-9.9867-1.3466-14.04-4.0667-10-15.547-11.387-22.96-11.387"/>
  <path d="m1328.1 1.2394v272.09c-6.4534 0-56.04-0.07-74.04-0.07l0.227-63.893c-29.653-0.493-53.133 0-88.893 0l-2.16 3.7867-33.467 60.173h-38.96-44.573l3.3333-5.1733 118.33-198.67c16.427-27.053 36.933-68.253 75.627-68.253h84.573zm-73.88 49.387-0.907 0.2-61.413 111-0.88 1.5066c10 0 23.547 0.16 33.213 0.16 9.08-0.16 20.533-0.16 29.907-0.16l0.08-112.71"/>
  <path d="m511.82 19.933c7.3867 6.2934 14.293 16.467 16.733 28.227 2.0134 12.613-0.307 27.96-3.4 40.947-4.1733 17.493-7.9333 31.653-14.44 54.16-6.4 22.08-15.56 46.253-15.56 46.253-9.1733 24.587-18.053 44.587-30.56 61.52-7.1733 8-13.427 12.533-21.667 16.667-13.72 6.9067-29.053 9.4534-44.16 10.84-2.5067 0-23.053 0.827-38.613 0.827-19.44 0.28-40.187-0.627-43.107-0.627-25-1.3333-49.827-6.5866-67.16-29.92-20.667-30-8.3867-72.613 0.333-102.33 4.9867-17.027 10.573-34.653 16.413-51.347 6.2666-17.933 11.44-33.547 19.253-48.653 12.6-24.347 36.347-40.72 67.6-44.053 40.187-2.9867 93.747-2.92 122.92 2.9067 0 0 22.493 3.3333 35.413 14.587zm-89.72 32.507c-7.84-0.72-14.867-1.6667-27.747-0.84-12.533 0.28-19.48 1.9467-26.187 6.7333-5.84 5.56-8.92 10.107-11.76 16.187-4.1467 8.8667-7.36 17.92-11.533 29.587-4.04 11.333-9.2667 29.587-17.227 56.24-2.9067 9.7866-5.04 18.413-6.52 25.2-2.1333 9.68-2.96 15.56-2.96 15.56-0.84 6.1066-0.613 12.387 3.3867 17.72 4 4.3334 9.6666 6.6667 15 7.6667 5.6666 1.6667 11.333 0.667 16.667 1.6667 16.747-0.253 39 3 50-16 4.16-6.9467 7.8133-16.493 11-25.04 5.8133-15.573 4.72-13.173 15.333-48.507 9.76-32.573 14.213-50.067 14.213-50.067 2-8.6667 5.7866-23.053-2.2134-29.72 0 0-5.7733-5.1467-19.453-6.3867"/>
 </g>
</svg>
