<?xml version="1.0" encoding="UTF-8" standalone="no"?>
<!-- Created with Inkscape (http://www.inkscape.org/) -->
<svg
   xmlns:svg="http://www.w3.org/2000/svg"
   xmlns="http://www.w3.org/2000/svg"
   version="1.0"
   width="850.39368"
   height="244.13385"
   id="svg145868">
  <defs
     id="defs145870" />
  <g
     transform="translate(-586.37187,-430.72069)"
     id="layer1">
    <g
       transform="matrix(3.7156602,0,0,3.7156602,-1556.9538,-1604.717)"
       id="g146158">
      <path
         d="M 785.08478,558.34886 C 783.93091,558.34886 783.0655,558.72392 782.20009,559.50283 C 781.62315,560.31059 781.04574,561.34918 781.04574,562.44546 C 781.04574,563.51284 781.62315,564.52258 782.20009,565.30151 C 783.0655,566.10926 783.93091,566.54202 785.08478,566.54202 C 786.23867,566.54202 787.39254,566.10926 787.96996,565.30151 C 788.83537,564.55143 789.12384,563.57054 789.12384,562.44546 C 789.12384,561.34918 788.83537,560.31059 787.96996,559.56053 C 787.39254,558.75276 786.23867,558.34886 785.08478,558.34886 z M 788.83537,562.4743 C 788.83537,563.42631 788.25843,564.29181 787.68149,564.92649 C 786.8156,565.61886 785.95019,565.99388 785.08478,565.99388 C 784.21937,565.99388 783.35396,565.61886 782.48856,564.92649 C 781.91162,564.23406 781.62315,563.36861 781.62315,562.44546 C 781.62315,561.49342 781.91162,560.59911 782.77703,559.87788 C 783.35396,559.21432 784.21937,558.86815 785.08478,558.86815 C 786.23867,558.86815 787.10407,559.24316 787.68149,559.93558 C 788.25843,560.59911 788.83537,561.46457 788.83537,562.4743 z M 785.37326,560.02212 L 783.64244,560.02212 L 783.64244,564.66682 L 784.50785,564.66682 L 784.50785,562.70509 L 785.37326,562.70509 L 786.23867,564.66682 L 787.10407,564.66682 L 786.23867,562.56085 C 786.8156,562.41661 787.10407,561.95501 787.10407,561.32034 C 787.10407,560.45483 786.52713,560.02212 785.37326,560.02212 z M 785.08478,560.59911 C 785.95019,560.59911 786.23867,560.82989 786.23867,561.40687 C 786.23867,561.95501 785.95019,562.12809 785.08478,562.12809 L 784.50785,562.12809 L 784.50785,560.59911 L 785.08478,560.59911"
         style="fill:#00a9a0;fill-rule:evenodd;stroke:none;stroke-width:0.10201;stroke-linecap:butt;stroke-linejoin:miter;stroke-miterlimit:4;stroke-dasharray:none"
         id="path672" />
      <path
         d="M 653.2441,557.51225 C 660.16785,557.51225 667.38007,557.51225 674.30382,557.51225 C 674.88124,557.51225 676.90052,557.62763 677.189,557.68533 C 677.76593,557.97379 676.32359,561.00297 675.1697,561.83963 C 674.88124,562.12809 674.30382,562.12809 674.01535,562.18579 C 672.573,562.35888 671.13065,562.87817 670.84218,564.17637 C 670.26524,566.16701 670.55372,569.02305 670.55372,571.30215 C 670.55372,577.44703 670.55372,583.59187 670.55372,589.73675 C 670.55372,591.5254 669.97677,596.25669 670.84218,597.5549 C 671.41912,599.02619 673.14994,599.02619 674.88124,599.02619 C 675.1697,598.96849 675.74665,598.9108 676.03511,598.85311 C 676.61206,598.65113 676.90052,598.42035 677.47746,598.18958 C 678.63134,597.52605 679.78522,596.45862 680.65063,595.18926 C 681.51652,593.97759 682.09346,592.59284 682.67039,591.17919 C 682.95887,590.40028 682.95887,589.304 683.5358,588.64047 C 684.11274,587.80386 687.28639,587.16917 687.86332,587.19803 C 688.1518,587.16917 688.72874,587.22687 689.01721,587.22687 C 689.01721,592.16008 689.01721,597.12215 689.01721,602.08421 C 689.01721,602.40152 688.72874,603.81517 688.72874,603.87286 C 688.72874,603.87286 668.53442,603.87286 658.43703,603.87286 C 655.84032,603.87286 652.95563,603.87286 650.3594,603.87286 C 650.07093,603.87286 649.49351,603.98825 649.49351,603.69973 C 649.49351,603.69973 649.49351,603.69973 649.49351,603.69973 C 649.49351,602.43037 650.07093,600.06478 651.22481,599.37236 C 651.80175,599.02619 652.37869,599.02619 653.2441,599.02619 C 653.53256,598.79541 654.10951,598.53575 654.68645,598.27612 C 655.84032,597.64144 656.41775,596.54516 656.70621,595.47772 C 657.57162,593.25636 657.28315,590.19835 657.28315,587.57309 C 657.28315,582.20712 657.28315,576.8412 657.28315,571.47523 C 657.28315,569.77311 657.57162,565.41689 656.99468,564.14753 C 656.12927,562.04156 651.80175,562.4743 651.51328,561.55111 C 651.22481,560.42599 652.66716,558.37771 653.2441,557.51225"
         style="fill:#00a8a0;fill-rule:nonzero;stroke:none;stroke-width:0.071;stroke-linecap:butt;stroke-linejoin:miter;stroke-miterlimit:4;stroke-dasharray:none"
         id="path676" />
      <path
         d="M 764.31353,557.68533 C 765.17894,557.68533 766.62129,557.51225 767.19823,558.20462 C 767.4867,559.18546 767.19823,562.56085 767.19823,563.97445 C 767.19823,570.4078 767.19823,576.8412 767.19823,583.27455 C 767.4867,583.27455 767.4867,583.30339 767.77517,583.15916 C 770.0834,581.25511 772.1027,578.88948 774.12198,576.81235 C 775.27634,575.83146 776.14175,574.50441 777.58409,573.98511 C 778.4495,573.61005 779.89185,573.81203 780.75726,573.81203 C 783.64244,573.81203 786.52713,573.81203 789.12384,573.81203 C 789.12384,574.87942 788.25843,576.35075 787.68149,577.07197 C 786.8156,577.79319 785.37326,577.47588 784.50785,577.93743 C 783.35396,578.39903 777.58409,584.54391 777.87257,585.03436 C 778.16103,586.39026 780.46879,588.09233 781.62315,589.2463 C 783.64244,591.32347 785.37326,593.4006 787.39254,595.50657 C 788.25843,596.22779 788.83537,597.20869 789.70078,597.67029 C 790.85465,598.27612 792.29701,598.36266 793.73936,598.59344 C 794.31677,598.70883 795.47065,598.59344 796.04759,599.08388 C 796.33606,599.3435 796.04759,600.15132 795.75912,600.41094 C 795.47065,601.16101 794.31677,603.35356 793.45088,603.67088 C 792.29701,604.13249 790.56619,603.84401 789.12384,603.84401 C 787.39254,603.84401 785.95019,603.84401 784.21937,603.84401 C 783.35396,603.84401 781.91162,603.9594 781.04574,603.72858 C 779.02644,603.20934 777.29563,601.36298 775.85328,599.80511 C 774.41045,598.21843 772.67963,596.6317 770.94881,595.04502 C 770.66034,594.58342 767.77517,591.78503 767.77517,591.5254 C 767.4867,591.5254 767.4867,591.66964 767.19823,591.66964 C 767.19823,596.25669 766.04435,599.40125 771.52575,599.40125 C 771.52575,600.38209 770.66034,603.06505 769.79494,603.5555 C 768.92953,604.13249 767.19823,603.84401 765.75588,603.84401 C 761.13989,603.84401 756.23591,603.87286 751.33144,603.87286 C 751.33144,603.75743 751.33144,603.64204 751.33144,603.4978 C 751.90838,602.28613 751.90838,601.04562 752.77379,600.03593 C 753.6392,599.14158 755.08154,599.19928 755.37002,597.90106 C 755.65849,596.97791 755.65849,595.76624 755.65849,594.72766 C 755.65849,592.93901 755.65849,591.15034 755.65849,589.36174 C 755.65849,584.11116 755.65849,578.86063 755.65849,573.61005 C 755.65849,571.18676 755.94695,568.41721 755.65849,566.13811 C 755.08154,564.00329 751.61991,565.04188 751.61991,564.32066 C 751.33144,563.62823 751.61991,562.79162 751.61991,562.18579 C 751.90838,561.55111 751.90838,560.91642 752.48532,560.39713 C 753.06226,559.56053 764.02506,557.82957 764.31353,557.68533"
         style="fill:#00a8a0;fill-rule:nonzero;stroke:none;stroke-width:0.071;stroke-linecap:butt;stroke-linejoin:miter;stroke-miterlimit:4;stroke-dasharray:none"
         id="path686" />
      <path
         d="M 698.82566,558.06039 C 700.84542,557.4257 702.28777,558.06039 703.73012,558.86815 C 706.90376,560.65681 707.19224,565.56117 704.59553,567.89791 C 701.71083,570.35011 697.38331,570.43664 693.34425,570.32125 C 692.47884,570.29241 691.61343,570.37895 691.03649,569.85966 C 690.45956,567.09016 694.49861,561.49342 696.80636,559.44514 C 697.38331,558.98353 698.24872,558.32 698.82566,558.06039"
         style="fill:#00a8a0;fill-rule:nonzero;stroke:none;stroke-width:0.071;stroke-linecap:butt;stroke-linejoin:miter;stroke-miterlimit:4;stroke-dasharray:none"
         id="path696" />
      <path
         d="M 704.01859,572.02337 C 704.59553,572.08107 704.884,572.13876 705.17246,572.19645 C 706.03835,572.60036 705.7494,578.02397 705.7494,579.35107 C 705.7494,583.765 705.7494,588.17891 705.7494,592.59284 C 705.7494,594.03528 705.46094,596.28554 706.03835,597.49716 C 706.32683,598.56459 707.4807,598.85311 708.63458,599.3435 C 709.21152,599.71857 708.92305,600.46864 708.63458,601.01677 C 708.63458,601.13217 708.63458,601.24755 708.63458,601.33414 C 708.63458,601.42068 708.63458,601.47838 708.63458,601.56491 C 708.05764,602.31498 707.76917,603.0939 707.4807,603.87286 C 702.28777,603.87286 697.09484,603.87286 691.9019,603.87286 C 691.61343,603.87286 690.17108,603.67088 689.88262,603.67088 C 689.88262,603.64204 690.45956,600.93024 691.32497,600.09363 C 692.19038,599.05504 693.05579,598.99734 693.6332,597.5549 C 693.92167,596.37207 693.92167,594.87189 693.92167,593.48714 C 693.92167,590.77533 693.92167,587.97694 693.6332,585.43821 C 693.6332,584.02462 694.21014,581.8898 693.6332,580.70698 C 693.05579,579.92802 690.74803,579.35107 689.88262,579.35107 C 689.59415,579.35107 689.59415,579.1491 689.59415,579.00486 C 690.17108,577.44703 689.88262,575.22563 692.19038,575.22563 C 692.76731,575.16793 693.05579,575.11024 693.6332,575.05254 C 694.49861,574.82171 695.65249,574.5621 696.5179,574.33132 C 699.11412,573.78318 701.9993,573.11966 704.01859,572.02337"
         style="fill:#00a8a0;fill-rule:nonzero;stroke:none;stroke-width:0.071;stroke-linecap:butt;stroke-linejoin:miter;stroke-miterlimit:4;stroke-dasharray:none"
         id="path706" />
      <path
         d="M 723.92443,572.19645 C 725.65573,572.74459 724.78984,575.94685 725.07879,577.53357 C 725.07879,577.7355 725.07879,577.90858 725.36726,577.90858 C 726.52114,577.76435 727.96349,576.81235 729.11736,576.20651 C 732.00254,574.76402 736.61805,572.74459 738.92629,572.65805 C 739.7917,572.60036 740.94557,572.71574 741.81098,572.77344 C 744.11922,572.91767 745.85004,574.99484 746.71545,577.07197 C 747.00392,578.57211 747.00392,580.62044 747.00392,582.3802 C 747.00392,586.73643 747.00392,591.09265 747.00392,595.44888 C 747.00392,596.89137 747.58085,598.18958 748.73474,598.99734 C 749.31167,599.25697 749.60015,599.48779 750.17756,599.71857 C 750.46604,599.9205 750.17756,600.35324 750.17756,600.61287 C 749.88861,601.47838 749.60015,602.74774 748.73474,603.35356 C 747.58085,604.24788 744.11922,603.84401 742.38792,603.84401 C 740.08016,603.84401 738.06088,603.78632 736.90652,602.34383 C 733.15642,598.47805 739.21476,580.0723 731.4256,580.59159 C 730.27124,580.64928 729.40583,581.11083 728.54042,581.63012 C 724.2129,584.05346 725.07879,587.74617 725.07879,592.59284 C 725.07879,594.52573 724.78984,597.09329 725.94419,598.4492 C 726.8096,599.54549 728.54042,598.76657 729.40583,599.57433 C 729.6943,599.94934 728.54042,601.96882 728.25195,602.37268 C 728.25195,602.80543 727.96349,603.41127 727.38654,603.64204 C 726.23267,604.19018 724.2129,603.84401 722.77055,603.84401 C 718.73198,603.84401 714.40445,603.87286 710.07693,603.87286 C 710.3654,602.45922 710.65387,600.67061 711.51928,599.71857 C 712.38517,598.93965 713.25057,598.67998 713.53904,597.61259 C 713.82752,596.11241 713.53904,593.89105 713.53904,592.24663 C 713.53904,588.84244 713.53904,585.43821 713.53904,582.03404 C 713.53904,581.54359 713.25057,581.08199 713.25057,580.70698 C 712.38517,579.63954 710.94234,579.69723 709.78846,579.69723 C 710.07693,578.45672 710.3654,577.21621 710.65387,575.94685 C 711.80774,575.68722 712.96211,575.39871 714.11598,575.13908 C 717.28915,574.18704 720.75126,573.69664 723.92443,572.19645"
         style="fill:#00a8a0;fill-rule:nonzero;stroke:none;stroke-width:0.071;stroke-linecap:butt;stroke-linejoin:miter;stroke-miterlimit:4;stroke-dasharray:none"
         id="path710" />
      <path
         d="M 655.55186,579.00486 C 656.99468,579.00486 653.2441,585.87097 652.09021,586.30372 C 650.93634,586.82296 648.02237,586.50565 646.49363,586.50565 C 644.01259,586.50565 641.50276,586.50565 638.99246,586.50565 C 638.73278,586.50565 638.32911,586.59219 638.27152,586.33257 C 638.21392,586.33257 641.30068,579.46646 642.0797,579.1491 C 643.0315,578.7164 652.09021,579.00486 655.55186,579.00486"
         style="fill:#00a8a0;fill-rule:nonzero;stroke:none;stroke-width:0.071;stroke-linecap:butt;stroke-linejoin:miter;stroke-miterlimit:4;stroke-dasharray:none"
         id="path714" />
      <path
         d="M 629.58767,564.95534 C 627.71286,562.4743 625.77996,559.24316 622.83719,557.97379 C 621.65452,557.4257 620.21169,557.56994 618.76934,557.4834 C 614.96115,557.25257 589.83358,557.4834 588.16036,557.33912 C 587.52582,558.14692 586.19867,560.42599 586.42955,561.57995 C 586.71801,563.10899 590.5838,561.89732 591.36281,563.54169 C 591.82407,564.55143 591.5644,566.31124 591.5644,567.55176 C 591.5644,571.18676 591.5644,574.82171 591.5644,578.45672 C 591.5644,582.46678 591.5644,586.44795 591.5644,590.42912 C 591.53561,592.36201 591.85287,594.64111 591.30521,596.31438 C 590.78587,597.78567 589.37184,597.58374 588.30484,598.33382 C 587.49703,598.88196 585.9966,602.40152 586.45835,603.35356 C 586.83321,604.10364 594.2475,603.87286 595.68985,603.87286 C 600.76759,603.87286 605.81605,603.87286 610.89379,603.87286 C 615.65377,603.87286 621.10638,604.56523 624.59681,602.14191 C 625.60669,601.44953 626.21243,600.43979 626.90505,599.45894 C 628.20292,597.52605 629.53007,595.62201 630.82842,593.71792 C 632.47285,591.26578 634.54973,588.8136 635.81929,586.15944 C 636.6271,584.42853 637.00196,582.40905 637.00196,580.24538 C 637.00196,573.40812 633.25185,569.83081 629.58767,564.95534 z M 613.28794,567.29209 C 614.96115,569.57119 616.63438,571.82144 618.3076,574.10049 C 619.40388,575.62953 620.50016,577.12967 621.56763,578.65865 C 621.94298,579.37993 622.02938,580.38961 621.9137,581.31281 C 621.59644,583.70731 619.51955,585.58245 618.1348,587.45765 C 616.77885,589.21745 615.4229,590.97726 614.09575,592.73707 C 612.82668,594.41034 611.52832,596.05471 610.25876,597.69913 C 609.7975,598.10299 609.22008,598.16074 608.75882,598.5069 C 607.69134,598.5069 606.24899,598.70883 605.75845,597.75682 C 605.21031,596.71824 605.52757,591.81387 605.52757,590.25604 C 605.52757,581.80321 605.55637,573.32158 605.55637,564.86875 C 605.58518,564.14753 605.64278,563.59939 606.24899,563.25322 C 606.24899,563.19552 606.24899,563.13783 606.24899,563.08014 C 607.63374,563.08014 609.19128,562.90701 610.25876,563.57054"
         style="fill:#00a8a0;fill-rule:nonzero;stroke:none;stroke-width:0.071;stroke-linecap:butt;stroke-linejoin:miter;stroke-miterlimit:4;stroke-dasharray:none"
         id="path718" />
    </g>
  </g>
</svg>
