<svg xmlns="http://www.w3.org/2000/svg" xmlns:xlink="http://www.w3.org/1999/xlink" fill="none" version="1.1" width="85" height="42" viewBox="0 0 85 42"><defs><clipPath id="master_svg0_349_04442"><rect x="0" y="0" width="85" height="42" rx="0"/></clipPath></defs><g style="mix-blend-mode:passthrough" clip-path="url(#master_svg0_349_04442)"><g><path d="M65.59964604492187,12.137971484375L65.59964604492187,7.603271484375L49.813446044921875,7.603271484375L49.813446044921875,33.379471484375L55.09824604492187,33.379471484375L55.09824604492187,22.980371484375L64.81544604492187,22.980371484375L64.81544604492187,18.445671484374998L55.09824604492187,18.445671484374998L55.09824604492187,12.137971484375L65.59964604492187,12.137971484375Z" fill="#4C4948" fill-opacity="1"/></g><g><path d="M77.32849926757812,18.10468671875C73.54389926757813,16.74082671875,72.86198926757812,15.78615671875,72.86198926757812,14.35414671875C72.86198926757812,13.12671671875,73.85075926757813,11.69470671875,76.68068926757812,11.69470671875C78.65819926757813,11.69470671875,80.15839926757812,12.24022671875,81.07899926757813,12.71756671875L82.10189926757812,13.263096718749999L83.67029926757813,8.96706671875L82.95419926757813,8.59201671875C82.03369926757813,8.11467771875,80.02199926757812,7.29638671875,76.81709926757813,7.29638671875C74.15761926757813,7.29638671875,71.87321926757812,8.01239171875,70.16844926757813,9.37620671875C68.46367926757813,10.74002671875,67.54309826757813,12.64937671875,67.54309826757813,14.76329671875C67.54309826757813,18.27508671875,69.96387926757812,20.76408671875,74.94180926757812,22.43478671875C78.45359926757813,23.69628671875,79.13559926757813,24.78738671875,79.13559926757813,26.32168671875C79.13559926757813,28.29918671875,77.49899926757813,29.49248671875,74.77133926757813,29.49248671875C72.93017926757813,29.49248671875,70.91854926757813,28.94698671875,69.35015926757812,28.06048671875L68.36138926757812,27.48088671875L66.79299926757812,31.81098671875L67.44081126757813,32.22018671875C69.04329926757812,33.20898671875,71.94140926757812,33.92498671875,74.53266926757813,33.92498671875C81.41999926757812,33.92498671875,84.48849926757812,29.96988671875,84.48849926757812,26.08298671875C84.48859926757812,21.34368671875,80.87439926757813,19.40028671875,77.32849926757812,18.10468671875Z" fill="#4C4948" fill-opacity="1"/></g><g><g><path d="M38.25508984375,14.0473373046875L33.72038984375,14.0473373046875L16.53628984375,14.0473373046875C14.66108984375,14.0473373046875,13.12678984375,12.5130373046875,13.12678984375,10.6377373046875C13.12678984375,8.7625273046875,14.66108984375,7.2282373046875,16.53628984375,7.2282373046875L33.72038984375,7.2282373046875L35.80028984375,7.2282373046875C32.04978984375,3.0685873046875,26.62858984375,0.4432373046875,20.59368984375,0.4432373046875C9.34216984375,0.4432373046875,0.20458984375,9.5808173046875,0.20458984375,20.8323373046875C0.20458984375,32.0838373046875,9.34216984375,41.2214373046875,20.59368984375,41.2214373046875C31.84518984375,41.2214373046875,40.98278984375,32.0838373046875,40.98278984375,20.8323373046875C40.98278984375,18.3433373046875,40.53948984375,15.9225373046875,39.68708984375,13.7063373046875C39.27798984375,13.9109373046875,38.76658984375,14.0473373046875,38.25508984375,14.0473373046875ZM20.21858984375,33.7545373046875L14.76338984375,33.7545373046875C13.26318984375,33.7545373046875,12.03568984375,32.5270373046875,12.03568984375,31.0268373046875C12.03568984375,29.5266373046875,13.26318984375,28.2992373046875,14.76338984375,28.2992373046875L20.18448984375,28.2992373046875C21.68468984375,28.2992373046875,22.91218984375,29.5266373046875,22.91218984375,31.0268373046875C22.91218984375,32.5270373046875,21.71878984375,33.7545373046875,20.21858984375,33.7545373046875ZM28.53788984375,24.2418373046875L15.61568984375,24.2418373046875C13.94508984375,24.2418373046875,12.54718984375,22.8780373046875,12.54718984375,21.1732373046875C12.54718984375,19.5026373046875,13.91098984375,18.1046373046875,15.61568984375,18.1046373046875L28.53788984375,18.1046373046875C30.20858984375,18.1046373046875,31.60648984375,19.4685373046875,31.60648984375,21.1732373046875C31.60648984375,22.8439373046875,30.20858984375,24.2418373046875,28.53788984375,24.2418373046875Z" fill="#C00000" fill-opacity="1"/></g><g><path d="M28.537919140625,18.104736328125L15.615709140625,18.104736328125C13.945029140625,18.104736328125,12.547119140625,19.468556328125,12.547119140625,21.173326328125C12.547119140625,22.844006328125,13.910939140625,24.241916328125,15.615709140625,24.241916328125L28.537919140625,24.241916328125C30.208619140625,24.241916328125,31.606519140625,22.878106328125,31.606519140625,21.173326328125C31.606519140625,19.502656328125,30.208619140625,18.104736328125,28.537919140625,18.104736328125Z" fill="#FFFFFF" fill-opacity="1"/></g><g><path d="M20.21861556640625,28.2991943359375L14.763345566406251,28.2991943359375C13.26314556640625,28.2991943359375,12.03570556640625,29.5266343359375,12.03570556640625,31.0268343359375C12.03570556640625,32.5270343359375,13.26314556640625,33.7544643359375,14.763345566406251,33.7544643359375L20.18452556640625,33.7544643359375C21.68472556640625,33.7544643359375,22.91220556640625,32.5270343359375,22.91220556640625,31.0268343359375C22.91220556640625,29.5266343359375,21.71881556640625,28.2991943359375,20.21861556640625,28.2991943359375Z" fill="#FFFFFF" fill-opacity="1"/></g><g><path d="M41.66468245117188,10.637821484375C41.66468245117188,8.762571484375,40.130382451171876,7.228271484375,38.255132451171875,7.228271484375L35.800262451171875,7.228271484375C37.47094245117187,9.103521484375,38.834762451171876,11.285631484375,39.721242451171875,13.706411484375C40.84639245117187,13.160881484375,41.66468245117188,12.001641484375,41.66468245117188,10.637821484375Z" fill="#C00000" fill-opacity="1"/></g><g><path d="M33.72047001953125,7.228271484375L16.53632001953125,7.228271484375C14.66107001953125,7.228271484375,13.12677001953125,8.762571484375,13.12677001953125,10.637821484375C13.12677001953125,12.513071484375,14.66107001953125,14.047361484375,16.53632001953125,14.047361484375L33.72047001953125,14.047361484375L38.25517001953125,14.047361484375C38.76657001953125,14.047361484375,39.24387001953125,13.945081484374999,39.68717001953125,13.706411484375C38.80067001953125,11.285631484375,37.43687001953125,9.103521484375,35.766170019531245,7.228271484375L33.72047001953125,7.228271484375Z" fill="#FFFFFF" fill-opacity="1"/></g></g></g></svg>