<?xml version="1.0" encoding="UTF-8" standalone="no"?>
<!-- Created with Inkscape (http://www.inkscape.org/) -->

<svg
   xmlns:dc="http://purl.org/dc/elements/1.1/"
   xmlns:cc="http://creativecommons.org/ns#"
   xmlns:rdf="http://www.w3.org/1999/02/22-rdf-syntax-ns#"
   xmlns:svg="http://www.w3.org/2000/svg"
   xmlns="http://www.w3.org/2000/svg"
   xmlns:sodipodi="http://sodipodi.sourceforge.net/DTD/sodipodi-0.dtd"
   xmlns:inkscape="http://www.inkscape.org/namespaces/inkscape"
   width="349.97656"
   height="72.171654"
   viewBox="0 0 92.597968 19.095416"
   version="1.1"
   id="svg1836"
   inkscape:version="0.92.0 r15299"
   sodipodi:docname="mellanox.svg">
  <defs
     id="defs1830">
    <clipPath
       id="clipPath166"
       clipPathUnits="userSpaceOnUse">
      <path
         inkscape:connector-curvature="0"
         id="path164"
         d="m 362.768,699.972 h 77.858 v 60.348 h -77.858 z" />
    </clipPath>
    <clipPath
       id="clipPath52"
       clipPathUnits="userSpaceOnUse">
      <path
         inkscape:connector-curvature="0"
         id="path50"
         d="M 0,0 H 2609.82 V 526.285 H 0 Z" />
    </clipPath>
  </defs>
  <sodipodi:namedview
     id="base"
     pagecolor="#ffffff"
     bordercolor="#666666"
     borderopacity="1.0"
     inkscape:pageopacity="0.0"
     inkscape:pageshadow="2"
     inkscape:zoom="2.291582"
     inkscape:cx="174.98828"
     inkscape:cy="36.085827"
     inkscape:document-units="mm"
     inkscape:current-layer="layer1"
     showgrid="false"
     fit-margin-top="0"
     fit-margin-left="0"
     fit-margin-right="0"
     fit-margin-bottom="0"
     units="px"
     inkscape:window-width="1280"
     inkscape:window-height="744"
     inkscape:window-x="-4"
     inkscape:window-y="-4"
     inkscape:window-maximized="1" />
  <metadata
     id="metadata1833">
    <rdf:RDF>
      <cc:Work
         rdf:about="">
        <dc:format>image/svg+xml</dc:format>
        <dc:type
           rdf:resource="http://purl.org/dc/dcmitype/StillImage" />
        <dc:title></dc:title>
      </cc:Work>
    </rdf:RDF>
  </metadata>
  <g
     inkscape:label="Layer 1"
     inkscape:groupmode="layer"
     id="layer1"
     transform="translate(-2.7130603,-236.20566)">
    <g
       id="g2132"
       transform="translate(0.26458291,-0.26457664)">
      <g
         style="fill:#21236a;fill-opacity:1"
         id="g2106">
        <path
           inkscape:connector-curvature="0"
           id="path54"
           style="fill:#21236a;fill-opacity:1;fill-rule:nonzero;stroke:none;stroke-width:0.03527778"
           d="m 21.826313,250.99601 c -0.300284,0 -0.631543,10e-4 -0.985838,0.006 l 0.49456,-0.81495 z m 18.130698,4.30498 c 0.0056,-0.3525 -0.136878,-0.67179 -0.376414,-0.96049 L 29.82047,237.95632 v -1.2215 h -1.782234 v 1.15383 l -6.703201,11.11222 -6.703449,-11.11222 v -1.15383 h -1.781528 v 1.22217 L 3.0898184,254.3405 c -0.2395036,0.2887 -0.3818551,0.60799 -0.3766185,0.96049 h 3.2094525 c 0,0 -0.4146515,-0.81993 1.6567998,-1.62677 0.00236,-0.002 0.4817886,-1.46761 0.4817886,-1.46761 0,0 -2.0016119,0.35553 -3.5552135,1.11896 l 7.5933907,-12.8199 -4.2778192,13.08655 0.848854,-0.32108 4.1796052,-12.90958 v 11.07281 c -1.032721,0.12509 -2.208988,0.29185 -3.5181468,0.51619 l -0.3749676,1.24548 c 0,0 6.1342064,-1.25608 9.2294084,-1.15149 l -0.272839,-0.97125 c 0,0 -1.161132,-0.0179 -3.281927,0.17226 v -11.07048 l 3.835753,11.84976 0.732861,-0.0317 -3.715879,-11.44173 5.491868,9.04409 -0.858238,1.42198 c -0.325331,0.009 -0.662269,0.0197 -1.005416,0.0345 l 0.303882,0.94063 c 0,0 1.998698,-0.12512 3.782696,0.02 0.01228,0.002 0.31697,-0.99149 0.31697,-0.99149 0,0 -0.369887,-0.0128 -0.973172,-0.0208 l -0.847937,-1.40477 5.485977,-9.0376 -3.728544,11.45935 0.751029,0.0214 3.8348,-11.8627 v 11.06964 c -2.120794,-0.19018 -3.282915,-0.17226 -3.282915,-0.17226 l -0.27051,0.97125 c 3.094391,-0.10459 9.238369,1.15149 9.238369,1.15149 l -0.385269,-1.24548 c -1.309687,-0.22434 -2.484049,-0.39163 -3.517441,-0.51619 v -11.07281 l 4.179147,12.90958 0.844338,0.30386 -4.270411,-13.06877 7.591355,12.81824 c -1.554162,-0.76233 -3.557552,-1.11786 -3.557552,-1.11786 0,0 0.480942,1.46554 0.483411,1.46761 2.071759,0.80684 1.656821,1.62677 1.656821,1.62677 h 3.209432" />
        <path
           inkscape:connector-curvature="0"
           id="path56"
           style="fill:#21236a;fill-opacity:1;fill-rule:nonzero;stroke:none;stroke-width:0.03527778"
           d="m 48.924975,248.26279 v -0.4626 c 1.116189,-0.0982 1.173339,-0.19639 1.158875,-1.55691 l -0.02857,-5.51282 h -0.05715 l -3.290711,7.43451 H 46.349702 L 43.33063,240.8848 h -0.04304 l -0.185561,3.77306 c -0.0575,1.16441 -0.0575,1.80975 -0.01446,2.30064 0.04304,0.63112 0.343253,0.7572 1.30175,0.84169 v 0.4626 H 40.9843 v -0.4626 c 0.815269,-0.07 1.087261,-0.29464 1.18745,-0.82793 0.08572,-0.44856 0.185914,-1.13619 0.286455,-2.60862 l 0.214489,-2.83351 c 0.1143,-1.66924 0.01411,-1.82358 -1.230489,-1.93587 v -0.44884 h 2.732617 l 2.947458,6.45224 2.990145,-6.45224 h 2.718506 v 0.44884 c -1.18745,0.11229 -1.258711,0.19636 -1.230136,1.45863 l 0.142875,5.19039 c 0.02857,1.36052 0.08572,1.44459 1.2446,1.55691 v 0.4626 h -4.063295" />
        <path
           inkscape:connector-curvature="0"
           id="path58"
           style="fill:#21236a;fill-opacity:1;fill-rule:nonzero;stroke:none;stroke-width:0.03527778"
           d="m 55.993231,242.46993 c -0.586669,0 -1.1303,0.63116 -1.259417,1.73937 0.658284,0 1.287992,-0.0141 1.960387,-0.0421 0.228952,0 0.314677,-0.0565 0.314677,-0.2807 0,-0.71561 -0.37218,-1.41662 -1.001536,-1.41662 z m 2.518128,4.48857 c -0.872772,1.19239 -1.945922,1.47285 -2.489553,1.47285 -1.846086,0 -2.890308,-1.38882 -2.890308,-3.00179 0,-1.03794 0.414866,-1.90789 1.015647,-2.49703 0.615597,-0.63112 1.402292,-1.00969 2.1463,-1.00969 h 0.01411 c 1.273528,0 2.260953,1.08 2.260953,2.2024 0,0.28042 -0.08608,0.43476 -0.386292,0.49057 -0.243416,0.0283 -2.003425,0.16856 -3.520017,0.22461 0.04304,1.65506 0.987425,2.42676 2.003073,2.42676 0.558094,0 1.101725,-0.19639 1.602669,-0.64562 l 0.243417,0.33694" />
        <path
           inkscape:connector-curvature="0"
           id="path60"
           style="fill:#21236a;fill-opacity:1;fill-rule:nonzero;stroke:none;stroke-width:0.03527778"
           d="m 58.797462,248.26279 v -0.42058 c 0.872772,-0.11201 0.972961,-0.18232 0.972961,-1.09414 v -6.15544 c 0,-0.88361 -0.07161,-0.91183 -0.915811,-1.00969 v -0.37895 c 0.801511,-0.0841 1.802694,-0.29464 2.489553,-0.491 v 8.03508 c 0,0.9398 0.100189,1.00968 0.987425,1.09414 v 0.42058 h -3.534128" />
        <path
           inkscape:connector-curvature="0"
           id="path62"
           style="fill:#21236a;fill-opacity:1;fill-rule:nonzero;stroke:none;stroke-width:0.03527778"
           d="m 62.488576,248.26279 v -0.42058 c 0.872772,-0.11201 0.972961,-0.18232 0.972961,-1.09414 v -6.15544 c 0,-0.88361 -0.07161,-1.26503 -0.915811,-1.36289 v -0.37896 c 0.801511,-0.0841 1.802694,-0.29446 2.489553,-0.49085 v 8.38814 c 0,0.9398 0.100189,1.00968 0.987072,1.09414 v 0.42058 h -3.533775" />
        <path
           inkscape:connector-curvature="0"
           id="path64"
           style="fill:#21236a;fill-opacity:1;fill-rule:nonzero;stroke:none;stroke-width:0.03527778"
           d="m 69.642557,244.91073 c -0.271639,0.13984 -0.672395,0.33623 -0.972961,0.49057 -0.486481,0.22462 -0.744009,0.49128 -0.744009,0.98186 0,0.75762 0.543631,1.0663 0.915812,1.0663 0.271638,0 0.558094,-0.12647 0.801158,-0.32286 z m 1.216025,3.52062 c -0.343253,0 -0.629708,-0.12651 -0.801158,-0.28046 -0.200025,-0.18232 -0.300567,-0.36488 -0.357717,-0.56127 -0.558095,0.36491 -1.2446,0.84173 -1.574095,0.84173 -1.144411,0 -1.859844,-0.89754 -1.859844,-1.76735 0,-0.71561 0.358069,-1.0801 1.116189,-1.36056 0.844197,-0.29488 1.931458,-0.64558 2.2606,-0.91182 v -0.36491 c 0,-0.92562 -0.386292,-1.44488 -0.987425,-1.44488 -0.2286,0 -0.400403,0.0845 -0.543631,0.25287 -0.157339,0.19636 -0.286103,0.51883 -0.414514,0.9536 -0.08643,0.32247 -0.272344,0.421 -0.529519,0.421 -0.329142,0 -0.787047,-0.30868 -0.787047,-0.65941 0,-0.23837 0.17145,-0.40679 0.472016,-0.63112 0.500945,-0.33694 1.473906,-0.84159 2.289175,-0.99593 0.52952,0 0.95885,0.12637 1.316567,0.40683 0.58667,0.43476 0.715081,1.02386 0.715081,1.79557 v 2.41226 c 0,0.64561 0.228953,0.82751 0.472369,0.82751 0.17145,0 0.357717,-0.0558 0.500592,-0.12609 l 0.143228,0.42097 -1.430867,0.77146" />
        <path
           inkscape:connector-curvature="0"
           id="path66"
           style="fill:#21236a;fill-opacity:1;fill-rule:nonzero;stroke:none;stroke-width:0.03527778"
           d="m 76.681885,248.26279 v -0.42058 c 0.686858,-0.0845 0.772583,-0.15434 0.772583,-1.13619 v -2.37063 c 0,-0.9959 -0.42933,-1.41662 -1.101725,-1.41662 -0.443441,0 -0.844197,0.22433 -1.244952,0.53301 v 3.35238 c 0,0.89778 0.08608,0.95359 0.758472,1.03805 v 0.42058 h -3.319286 v -0.42058 c 0.915458,-0.11201 0.987072,-0.14027 0.987072,-1.0801 v -2.90354 c 0,-0.85573 -0.07161,-0.91182 -0.801159,-1.05212 v -0.36449 c 0.75812,-0.11229 1.60267,-0.29489 2.374901,-0.54709 v 1.06592 c 0.286455,-0.19636 0.586669,-0.42097 0.915811,-0.63112 0.415219,-0.26667 0.729544,-0.40683 1.144764,-0.40683 1.144411,0 1.860197,0.81333 1.860197,2.2024 v 2.67892 c 0,0.89778 0.08572,0.9398 0.857956,1.03805 v 0.42058 h -3.204634" />
        <path
           inkscape:connector-curvature="0"
           id="path68"
           style="fill:#21236a;fill-opacity:1;fill-rule:nonzero;stroke:none;stroke-width:0.03527778"
           d="m 83.001547,242.44196 c -0.686859,0 -1.330678,0.79925 -1.330678,2.38442 0,1.73937 0.643819,3.08571 1.645355,3.08571 0.672395,0 1.301751,-0.44855 1.301751,-2.46877 0,-1.82312 -0.572206,-3.00136 -1.602317,-3.00136 z m 0.214841,-0.51912 c 1.902531,0 3.190523,1.45895 3.190523,3.14223 0,2.25792 -1.65982,3.36628 -3.248025,3.36628 -2.145948,0 -3.276248,-1.57099 -3.276248,-3.11411 0,-2.27239 1.816806,-3.3944 3.319286,-3.3944 h 0.01446" />
        <path
           inkscape:connector-curvature="0"
           id="path70"
           style="fill:#21236a;fill-opacity:1;fill-rule:nonzero;stroke:none;stroke-width:0.03527778"
           d="m 89.911405,248.26279 v -0.42058 c 0.558095,-0.0845 0.64382,-0.21054 0.400756,-0.61708 l -0.858661,-1.3746 c -0.28575,0.42072 -0.572206,0.89754 -0.801159,1.29025 -0.257527,0.43508 -0.185561,0.58942 0.443795,0.70143 v 0.42058 h -2.689931 v -0.42058 c 0.81527,-0.12651 1.044575,-0.28085 1.573742,-0.89779 0.371828,-0.42072 0.744008,-0.95401 1.173339,-1.52893 l -1.2446,-1.99168 c -0.429331,-0.67345 -0.587022,-0.79996 -1.359606,-0.91183 v -0.42072 h 3.190875 v 0.42072 c -0.529519,0.0981 -0.601133,0.22419 -0.37218,0.56113 l 0.744361,1.16417 c 0.300214,-0.42072 0.543631,-0.82751 0.743656,-1.16417 0.228952,-0.36477 0.142875,-0.46302 -0.443442,-0.56113 v -0.42072 h 2.618317 v 0.42072 c -0.815623,0.11187 -0.972961,0.18218 -1.488017,0.71547 -0.314678,0.33623 -0.64382,0.79926 -1.1303,1.45863 l 1.387828,2.13226 c 0.48648,0.74302 0.772583,0.92562 1.488016,1.02387 v 0.42058 h -3.376789" />
        <path
           inkscape:connector-curvature="0"
           id="path72"
           style="fill:#21236a;fill-opacity:1;fill-rule:nonzero;stroke:none;stroke-width:0.03527778"
           d="m 93.777497,242.8117 h 0.110067 c 0.12065,0 0.230364,-0.0303 0.230364,-0.12678 0,-0.0813 -0.05503,-0.13713 -0.214136,-0.13713 -0.06032,0 -0.09878,0.005 -0.126295,0.0103 z m 0,0.46165 h -0.153458 v -0.81693 c 0.0822,-0.0151 0.175683,-0.0251 0.290689,-0.0251 0.148167,0 0.21978,0.0251 0.280105,0.0658 0.04939,0.0303 0.08784,0.0962 0.08784,0.17265 0,0.10128 -0.0822,0.1622 -0.175683,0.19251 v 0.0101 c 0.0822,0.0255 0.12065,0.0916 0.148166,0.19805 0.02752,0.12167 0.04375,0.17265 0.06562,0.20299 h -0.159103 c -0.02716,-0.0303 -0.04939,-0.10132 -0.07126,-0.21294 -0.02223,-0.0916 -0.0822,-0.13229 -0.208491,-0.13229 h -0.104423 z m 0.148167,-1.07075 c -0.378531,0 -0.66922,0.28938 -0.66922,0.63941 0,0.36036 0.290689,0.64424 0.680156,0.64424 0.378883,0.005 0.664281,-0.28388 0.664281,-0.63913 0,-0.35514 -0.285398,-0.64452 -0.669573,-0.64452 z m 0.01094,-0.13685 c 0.472017,0 0.845256,0.34012 0.845256,0.77626 0,0.44167 -0.373239,0.78644 -0.850548,0.78644 -0.472016,0 -0.850547,-0.34477 -0.850547,-0.78644 0,-0.43614 0.378531,-0.77626 0.850547,-0.77626 h 0.0053" />
      </g>
      <g
         style="fill:#7b7979;fill-opacity:1"
         id="g2094">
        <path
           inkscape:connector-curvature="0"
           id="path74"
           style="fill:#7b7979;fill-opacity:1;fill-rule:nonzero;stroke:none;stroke-width:0.03527778"
           d="m 42.907644,253.27872 h -0.67063 v -2.3931 h -1.324328 v -0.51953 h 3.32493 v 0.51953 h -1.329972 v 2.3931" />
        <path
           inkscape:connector-curvature="0"
           id="path76"
           style="fill:#7b7979;fill-opacity:1;fill-rule:nonzero;stroke:none;stroke-width:0.03527778"
           d="m 45.310766,250.36609 h 2.950281 v 0.49678 h -2.280003 v 0.64907 h 1.329973 v 0.49678 h -1.329973 v 0.72292 h 2.307873 v 0.54708 h -2.978151 v -2.91263" />
        <path
           inkscape:connector-curvature="0"
           id="path78"
           style="fill:#7b7979;fill-opacity:1;fill-rule:nonzero;stroke:none;stroke-width:0.03527778"
           d="m 50.389708,250.88562 v 1.84602 h 1.810456 v -0.62715 l 0.670631,0.14125 v 0.34465 c 0,0.54708 -0.173214,0.68833 -0.715081,0.68833 h -1.721203 c -0.542219,0 -0.71508,-0.14125 -0.71508,-0.68833 v -1.53526 c 0,-0.54779 0.172861,-0.68904 0.71508,-0.68904 h 1.721203 c 0.541867,0 0.715081,0.14125 0.715081,0.68904 v 0.2763 l -0.670631,0.10745 v -0.55326 h -1.810456" />
        <path
           inkscape:connector-curvature="0"
           id="path80"
           style="fill:#7b7979;fill-opacity:1;fill-rule:nonzero;stroke:none;stroke-width:0.03527778"
           d="m 54.508389,250.36609 h 0.670278 v 1.12889 h 2.095853 v -1.12889 h 0.676275 v 2.91263 H 57.27452 v -1.25277 h -2.095853 v 1.25277 h -0.670278 v -2.91263" />
        <path
           inkscape:connector-curvature="0"
           id="path82"
           style="fill:#7b7979;fill-opacity:1;fill-rule:nonzero;stroke:none;stroke-width:0.03527778"
           d="m 59.671645,250.36609 h 0.457906 l 2.028472,1.71594 c 0.117122,0.0962 0.229306,0.19747 0.329847,0.31612 C 62.47094,252.15548 62.46,251.98598 62.46,251.89572 v -1.52963 h 0.603603 v 2.91263 h -0.458611 l -2.117726,-1.80054 c -0.08361,-0.0734 -0.161925,-0.14675 -0.240241,-0.23703 0.02222,0.22599 0.02822,0.37829 0.02822,0.46302 v 1.57455 h -0.603603 v -2.91263" />
        <path
           inkscape:connector-curvature="0"
           id="path84"
           style="fill:#7b7979;fill-opacity:1;fill-rule:nonzero;stroke:none;stroke-width:0.03527778"
           d="m 67.413001,252.73164 v -1.84602 h -2.213328 v 1.84602 z m -2.168525,-2.36555 h 2.123722 c 0.54222,0 0.715081,0.14125 0.715081,0.68904 v 1.53526 c 0,0.54708 -0.172861,0.68833 -0.715081,0.68833 h -2.123722 c -0.542219,0 -0.715081,-0.14125 -0.715081,-0.68833 v -1.53526 c 0,-0.54779 0.172862,-0.68904 0.715081,-0.68904" />
        <path
           inkscape:connector-curvature="0"
           id="path86"
           style="fill:#7b7979;fill-opacity:1;fill-rule:nonzero;stroke:none;stroke-width:0.03527778"
           d="m 69.748743,250.36609 h 0.670278 v 2.36555 h 2.162881 v 0.54708 h -2.833159 v -2.91263" />
        <path
           inkscape:connector-curvature="0"
           id="path88"
           style="fill:#7b7979;fill-opacity:1;fill-rule:nonzero;stroke:none;stroke-width:0.03527778"
           d="m 76.534777,252.73164 v -1.84602 h -2.212975 v 1.84602 z m -2.168173,-2.36555 h 2.12337 c 0.542219,0 0.715433,0.14125 0.715433,0.68904 v 1.53526 c 0,0.54708 -0.173214,0.68833 -0.715433,0.68833 h -2.12337 c -0.542219,0 -0.715433,-0.14125 -0.715433,-0.68833 v -1.53526 c 0,-0.54779 0.173214,-0.68904 0.715433,-0.68904" />
        <path
           inkscape:connector-curvature="0"
           id="path90"
           style="fill:#7b7979;fill-opacity:1;fill-rule:nonzero;stroke:none;stroke-width:0.03527778"
           d="m 79.479766,250.88562 v 1.84602 h 2.095147 v -0.64961 h -1.095375 v -0.49635 h 1.749425 v 1.00471 c 0,0.54708 -0.172861,0.68833 -0.71508,0.68833 h -1.989314 c -0.54222,0 -0.715081,-0.14125 -0.715081,-0.68833 v -1.53526 c 0,-0.54779 0.172861,-0.68904 0.715081,-0.68904 h 1.989314 c 0.524933,0 0.71508,0.13575 0.71508,0.66079 0,0.0223 0,0.0448 0,0.0675 l -0.65405,0.1185 v -0.32728 h -2.095147" />
        <path
           inkscape:connector-curvature="0"
           id="path92"
           style="fill:#7b7979;fill-opacity:1;fill-rule:nonzero;stroke:none;stroke-width:0.03527778"
           d="m 83.899719,253.27872 h 0.670553 v -2.91262 h -0.670553 z" />
        <path
           inkscape:connector-curvature="0"
           id="path94"
           style="fill:#7b7979;fill-opacity:1;fill-rule:nonzero;stroke:none;stroke-width:0.03527778"
           d="m 86.152205,250.36609 h 2.950281 v 0.49678 h -2.280003 v 0.64907 h 1.329972 v 0.49678 h -1.329972 v 0.72292 h 2.30752 v 0.54708 h -2.977798 v -2.91263" />
        <path
           inkscape:connector-curvature="0"
           id="path96"
           style="fill:#7b7979;fill-opacity:1;fill-rule:nonzero;stroke:none;stroke-width:0.03527778"
           d="m 91.2315,250.87419 v 0.62671 h 1.799167 c 0.542219,0 0.720725,0.14083 0.720725,0.68834 v 0.40115 c 0,0.54708 -0.178506,0.68833 -0.720725,0.68833 H 91.24808 c -0.542219,0 -0.720725,-0.14125 -0.720725,-0.68833 v -0.0792 l 0.592667,-0.12402 v 0.34451 h 2.039409 v -0.66642 h -1.79952 c -0.541514,0 -0.715433,-0.14125 -0.715433,-0.68874 v -0.32135 c 0,-0.54779 0.173919,-0.68904 0.715433,-0.68904 h 1.637595 c 0.513997,0 0.715433,0.13575 0.715433,0.63803 v 0.062 l -0.592667,0.14125 v -0.3332 H 91.2315" />
      </g>
    </g>
  </g>
</svg>
