<?xml version="1.0" encoding="utf-8"?>
<!-- Generator: Adobe Illustrator 27.0.1, SVG Export Plug-In . SVG Version: 6.00 Build 0)  -->
<svg version="1.1" id="Layer_1" xmlns="http://www.w3.org/2000/svg" xmlns:xlink="http://www.w3.org/1999/xlink" x="0px" y="0px"
	 viewBox="0 0 1000 238.62" style="enable-background:new 0 0 1000 238.62;" xml:space="preserve">
<style type="text/css">
	.st0{fill:#005E95;}
</style>
<g>
	<path class="st0" d="M374.92,65.05c-38.64,9.75-96.48,41.13-130.2,72.43c17.11,47.84,80.93,74.09,132.62,43.37l33.1,28.39
		c-52.17,35.65-99.26,34.35-134.57,19.8c-23.45,7.19-68.58,14.85-80.52-10.07c18.1,10.41,43.67,6.53,63.23,1.55
		c-20.92-12.21-37.26-29.93-47.49-48.28c-6.82,8.43-18.9,25.42-17.68,43.62c-16.92-17.4-2.26-43.14,10.24-58.69
		C178.38,95.61,203.6,32.49,250.01,0l35.17,30.29c-29.93,15.99-49.81,50.57-44.95,89.13c29.32-26.19,81.09-55.94,120.42-66
		c-16.7-10.07-34.39-10.04-52.51-3.33l-18.24-15.5c35.19-21.44,77.1-12.5,100.44,12.52c27.27-3.48,48.97-0.75,57.38,18.13
		c-9.8-8.42-26.83-8.87-47.2-5.75c26.52,40.58,11.62,93.11-29.07,115.82L353.2,159.4C389.02,139.26,398.11,90.62,374.92,65.05"/>
	<polyline class="st0" points="43,112.24 43,209.4 0,209.38 0,29.61 114.17,126.77 114.17,29.51 157.18,29.49 157.18,211.3 
		43,112.24 	"/>
	<polyline class="st0" points="598.05,68.91 597.99,29.45 727.3,29.45 727.3,68.91 685.55,68.91 685.55,209.39 642.56,209.39 
		642.56,68.91 598.05,68.91 	"/>
	<polyline class="st0" points="755.95,209.51 755.95,29.47 861.93,29.47 861.95,66.28 798.96,66.28 798.96,98.41 855.58,98.41 
		855.58,135.21 798.96,135.21 798.96,172.63 866.99,172.63 866.99,209.51 755.95,209.51 	"/>
	<polyline class="st0" points="900.05,209.38 900.05,29.45 943.05,29.45 943.05,169.83 1000,169.83 1000,209.38 900.05,209.38 	"/>
	<path class="st0" d="M497.83,66.51c27.41-1.09,39.31,3.21,39.12,23.39c0.24,20.49-14.39,27.85-39.12,25.19V66.51 M454.89,209.57
		l42.82-0.05l0.11-94.49l55.01,94.5h53.59l-54.54-82.2c17.73-6.57,28.11-26.01,28.11-43.95c0-39.54-29.63-53.77-70.21-53.77h-54.9
		V209.57z"/>
</g>
</svg>
