<?xml version="1.0" encoding="UTF-8" standalone="no"?>

<svg
   width="80mm"
   height="80mm"
   viewBox="0 0 80 80"
   version="1.1"
   id="svg5"
   xmlns="http://www.w3.org/2000/svg"
   xmlns:svg="http://www.w3.org/2000/svg">
  <defs
     id="defs2" />
  <g
     id="layer1">
    <path
       id="rect938"
       style="fill:#000000;fill-opacity:0.988235;stroke:#000000;stroke-width:7.65237;stroke-miterlimit:4;stroke-dasharray:none;stroke-opacity:1;stop-color:#000000"
       d="M 37.958984 18.943359 C 27.425376 18.943359 18.943359 27.425376 18.943359 37.958984 L 18.943359 264.4043 C 18.943359 274.93791 27.425376 283.41797 37.958984 283.41797 L 264.4043 283.41797 C 274.93791 283.41797 283.41797 274.93791 283.41797 264.4043 L 283.41797 37.958984 C 283.41797 27.425376 274.93791 18.943359 264.4043 18.943359 L 37.958984 18.943359 z M 39.685547 26.457031 A 13.228346 13.228346 0 0 1 52.914062 39.685547 A 13.228346 13.228346 0 0 1 39.685547 52.914062 A 13.228346 13.228346 0 0 1 26.457031 39.685547 A 13.228346 13.228346 0 0 1 39.685547 26.457031 z M 262.67773 26.457031 A 13.228346 13.228346 0 0 1 275.90625 39.685547 A 13.228346 13.228346 0 0 1 262.67773 52.914062 A 13.228346 13.228346 0 0 1 249.44922 39.685547 A 13.228346 13.228346 0 0 1 262.67773 26.457031 z M 151.18164 33.976562 A 117.20536 117.20537 0 0 1 268.38672 151.18164 A 117.20536 117.20537 0 0 1 151.18164 268.38672 A 117.20536 117.20537 0 0 1 33.976562 151.18164 A 117.20536 117.20537 0 0 1 151.18164 33.976562 z M 151.18164 122.78516 A 28.395437 28.395437 0 0 0 122.78516 151.18164 A 28.395437 28.395437 0 0 0 151.18164 179.57617 A 28.395437 28.395437 0 0 0 179.57617 151.18164 A 28.395437 28.395437 0 0 0 151.18164 122.78516 z M 39.685547 249.44922 A 13.228346 13.228346 0 0 1 52.914062 262.67773 A 13.228346 13.228346 0 0 1 39.685547 275.90625 A 13.228346 13.228346 0 0 1 26.457031 262.67773 A 13.228346 13.228346 0 0 1 39.685547 249.44922 z M 262.67773 249.44922 A 13.228346 13.228346 0 0 1 275.90625 262.67773 A 13.228346 13.228346 0 0 1 262.67773 275.90625 A 13.228346 13.228346 0 0 1 249.44922 262.67773 A 13.228346 13.228346 0 0 1 262.67773 249.44922 z "
       transform="scale(0.26458333)" />
    <path
       id="rect2316"
       style="fill-opacity:0.988235;stroke:#ffffff;stroke-width:0.590454;stroke-linejoin:round;stop-color:#000000"
       d="m 46.542283,11.885968 c 3.5858,0.46598 7.342028,1.926717 11.685734,5.328565 0.685678,0.537 0.746449,1.30684 0.606919,2.221808 -1.030034,6.754465 -4.813024,10.850905 -9.453056,14.044642 -0.768086,0.528674 -1.562667,1.377793 -2.175227,0.75708 -2.324278,-2.355215 -4.389095,-3.041596 -6.265725,-3.353021 -0.859378,-0.142612 -1.112715,-1.439017 -0.60692,-2.221809 3.628371,-5.615435 3.56034,-8.449255 4.033049,-16.020185 0.05741,-0.919472 1.311555,-0.869315 2.175226,-0.75708 z" />
    <path
       id="rect2316-9"
       style="fill-opacity:0.988235;stroke:#ffffff;stroke-width:0.590454;stroke-linejoin:round;stop-color:#000000"
       d="m 33.650008,68.395537 c -3.585799,-0.46598 -7.342027,-1.926717 -11.685733,-5.328565 -0.685679,-0.537 -0.746449,-1.306841 -0.60692,-2.221808 1.030034,-6.754465 4.813024,-10.850905 9.453057,-14.044642 0.768086,-0.528674 1.562667,-1.377794 2.175227,-0.75708 2.324278,2.355215 4.389095,3.041596 6.265725,3.353021 0.859377,0.142612 1.112715,1.439016 0.606919,2.221809 -3.628371,5.615434 -3.560339,8.449255 -4.033048,16.020185 -0.05741,0.919471 -1.311556,0.869315 -2.175227,0.75708 z" />
    <path
       id="rect2316-8"
       style="fill-opacity:0.988235;stroke:#ffffff;stroke-width:0.590454;stroke-linejoin:round;stop-color:#000000"
       d="m 68.381539,46.311407 c -0.465981,3.585799 -1.926718,7.342027 -5.328566,11.685733 -0.537,0.685679 -1.30684,0.74645 -2.221808,0.60692 C 54.0767,57.574026 49.98026,53.791036 46.786523,49.151003 c -0.528674,-0.768086 -1.377793,-1.562667 -0.75708,-2.175227 2.355215,-2.324278 3.041597,-4.389094 3.353021,-6.265725 0.142613,-0.859377 1.439017,-1.112714 2.22181,-0.606919 5.615434,3.628371 8.449255,3.56034 16.020185,4.033048 0.919471,0.05741 0.869315,1.311556 0.75708,2.175227 z" />
    <path
       id="rect2316-7"
       style="fill-opacity:0.988235;stroke:#ffffff;stroke-width:0.590454;stroke-linejoin:round;stop-color:#000000"
       d="m 11.891125,33.033832 c 0.46598,-3.585799 1.926717,-7.342027 5.328564,-11.685733 0.537001,-0.685679 1.306841,-0.746449 2.221808,-0.60692 6.754465,1.030034 10.850906,4.813024 14.044643,9.453057 0.528673,0.768086 1.377793,1.562667 0.75708,2.175227 -2.355215,2.324278 -3.041597,4.389095 -3.353021,6.265725 -0.142613,0.859377 -1.439017,1.112715 -2.221809,0.606919 -5.615435,-3.628371 -8.449255,-3.560339 -16.020185,-4.033048 -0.919472,-0.05741 -0.869316,-1.311556 -0.75708,-2.175227 z" />
  </g>
</svg>
